<?xml version="1.0" standalone="no"?>
<!DOCTYPE svg PUBLIC "-//W3C//DTD SVG 1.1//EN" "http://www.w3.org/Graphics/SVG/1.1/DTD/svg11.dtd" >
<!--
2013-9-30: Created.
-->
<svg>
<metadata>
Created by iconfont
</metadata>
<defs>

<font id="iconfont" horiz-adv-x="1024" >
  <font-face
    font-family="iconfont"
    font-weight="500"
    font-stretch="normal"
    units-per-em="1024"
    ascent="896"
    descent="-128"
  />
    <missing-glyph />
    
    <glyph glyph-name="accessibility" unicode="&#59515;" d="M512 810.666667c47.146667 0 85.333333-38.186667 85.333333-85.333334s-38.186667-85.333333-85.333333-85.333333-85.333333 38.186667-85.333333 85.333333 38.186667 85.333333 85.333333 85.333334z m384-298.666667H640v-554.666667h-85.333333V213.333333h-85.333334v-256h-85.333333V512H128v85.333333h768v-85.333333z"  horiz-adv-x="1024" />

    
    <glyph glyph-name="accessible" unicode="&#59516;" d="M512 725.333333m-85.333333 0a85.333333 85.333333 0 1 1 170.666666 0 85.333333 85.333333 0 1 1-170.666666 0ZM810.666667 341.333333v85.333334c-65.493333-0.853333-131.84 32-173.653334 78.293333l-55.253333 61.013333c-7.466667 8.106667-16.426667 14.506667-26.026667 19.413334-0.426667 0.213333-0.64 0.426667-0.853333 0.64h-0.426667c-14.72 8.533333-32.213333 12.8-50.773333 10.88-44.373333-4.266667-77.013333-44.16-77.013333-88.746667V256c0-47.146667 38.186667-85.333333 85.333333-85.333333h213.333333v-213.333334h85.333334V192c0 47.146667-38.186667 85.333333-85.333334 85.333333h-128v147.2c55.04-45.44 138.453333-82.986667 213.333334-83.2zM547.2 128A127.786667 127.786667 0 0 0 426.666667 42.666667c-70.613333 0-128 57.386667-128 128a127.786667 127.786667 0 0 0 85.333333 120.533333V379.733333c-97.28-19.84-170.666667-105.813333-170.666667-209.066666 0-117.76 95.573333-213.333333 213.333334-213.333334 103.253333 0 189.226667 73.386667 209.066666 170.666667h-88.533333z"  horiz-adv-x="1024" />

    
    <glyph glyph-name="d-rotation" unicode="&#59517;" d="M320.64-20.693333C181.333333 45.44 81.28 180.906667 66.133333 341.333333h-64C23.893333 78.506667 243.626667-128 512-128c9.6 0 18.773333 0.853333 28.16 1.493333L377.6 36.266667l-56.96-56.96z m37.973333 278.4c-8.106667 0-15.573333 1.066667-22.4 3.626666-6.613333 2.346667-12.373333 5.76-17.066666 10.026667-4.693333 4.266667-8.32 9.6-10.88 15.573333-2.56 6.186667-3.84 12.8-3.84 20.053334h-55.466667c0-15.36 2.986667-28.8 8.96-40.533334 5.973333-11.733333 13.866667-21.546667 23.893333-29.226666 10.026667-7.893333 21.546667-13.653333 34.773334-17.706667 13.226667-4.266667 26.88-6.186667 41.386666-6.186667 15.786667 0 30.506667 2.133333 44.16 6.4 13.653333 4.266667 25.386667 10.666667 35.413334 18.986667s17.706667 18.56 23.466666 30.72c5.546667 12.16 8.533333 26.026667 8.533334 41.6 0 8.32-1.066667 16.213333-2.986667 23.893333-2.133333 7.68-5.333333 14.933333-9.6 21.76-4.48 6.826667-10.24 12.8-17.28 18.346667a97.92 97.92 0 0 1-25.813333 13.44c8.533333 3.84 16 8.533333 22.4 14.08 6.4 5.546667 11.733333 11.52 16 17.706667 4.266667 6.4 7.466667 12.8 9.6 19.626666 2.133333 6.826667 3.2 13.653333 3.2 20.266667 0 15.573333-2.56 29.226667-7.68 40.96-5.12 11.733333-12.373333 21.546667-21.76 29.44-9.386667 7.893333-20.48 13.866667-33.706667 17.92a145.92 145.92 0 0 1-43.946667 6.186667c-15.36 0-29.653333-2.346667-42.666666-6.826667-13.013333-4.48-24.106667-10.88-33.493334-18.986667-9.386667-8.106667-16.64-17.706667-21.973333-28.8-5.333333-11.093333-7.893333-23.253333-7.893333-36.266666h55.466666c0 7.253333 1.28 13.653333 3.84 19.2 2.56 5.76 6.186667 10.666667 10.666667 14.506666 4.48 4.053333 10.026667 7.253333 16.213333 9.386667 6.186667 2.133333 13.013333 3.413333 20.266667 3.413333 17.066667 0 29.653333-4.48 37.973333-13.226666 8.32-8.746667 12.373333-21.12 12.373334-36.906667 0-7.68-1.066667-14.506667-3.413334-20.693333-2.346667-6.186667-5.76-11.52-10.453333-16-4.693333-4.48-10.666667-7.893333-17.493333-10.453334-7.04-2.56-15.36-3.84-24.746667-3.84h-32.853333v-43.733333h32.853333c9.386667 0 17.92-1.066667 25.386667-3.2 7.466667-2.133333 13.866667-5.333333 19.2-10.026667 5.333333-4.48 9.386667-10.24 12.373333-17.066666 2.773333-6.826667 4.266667-14.933333 4.266667-24.32 0-17.28-4.906667-30.506667-14.933334-39.68-9.6-8.96-23.04-13.44-40.32-13.44z m365.226667 252.8a138.709333 138.709333 0 0 1-48.426667 32.64c-18.986667 7.68-39.68 11.52-62.506666 11.52H512v-341.333334h97.92c23.68 0 45.013333 3.84 64.426667 11.52 19.413333 7.68 35.84 18.56 49.493333 32.64 13.653333 14.08 24.32 31.146667 31.573333 50.986667 7.466667 19.84 11.093333 42.24 11.093334 66.986667v16.853333c0 24.746667-3.84 46.933333-11.306667 66.986667-7.466667 20.053333-17.92 37.12-31.36 51.2z m-16.853333-135.253334c0-17.706667-1.92-33.92-6.186667-48-4.053333-14.293333-10.026667-26.24-18.133333-36.053333-8.106667-9.813333-18.133333-17.28-30.293334-22.613333-12.16-5.12-26.24-7.893333-42.453333-7.893334h-38.613333V506.88h41.6c30.72 0 53.973333-9.813333 70.186666-29.226667 16-19.626667 24.106667-47.786667 24.106667-84.906666v-17.493334zM512 896c-9.6 0-18.773333-0.853333-28.16-1.493333L646.4 731.733333l56.746667 56.746667C842.666667 722.56 942.72 587.093333 957.866667 426.666667h64C1000.106667 689.493333 780.373333 896 512 896z"  horiz-adv-x="1024" />

    
    <glyph glyph-name="account-balance" unicode="&#59518;" d="M170.666667 469.333333v-298.666666h128V469.333333H170.666667z m256 0v-298.666666h128V469.333333h-128zM85.333333-42.666667h810.666667v128H85.333333v-128z m597.333334 512v-298.666666h128V469.333333h-128zM490.666667 853.333333L85.333333 640v-85.333333h810.666667v85.333333L490.666667 853.333333z"  horiz-adv-x="1024" />

    
    <glyph glyph-name="account-circle" unicode="&#59519;" d="M512 810.666667C276.266667 810.666667 85.333333 619.733333 85.333333 384s190.933333-426.666667 426.666667-426.666667 426.666667 190.933333 426.666667 426.666667S747.733333 810.666667 512 810.666667z m0-128c70.613333 0 128-57.386667 128-128 0-70.826667-57.386667-128-128-128s-128 57.173333-128 128c0 70.613333 57.386667 128 128 128z m0-605.866667c-106.88 0-200.746667 54.613333-256 137.386667 1.066667 84.693333 170.88 131.413333 256 131.413333s254.72-46.72 256-131.413333c-55.253333-82.773333-149.12-137.386667-256-137.386667z"  horiz-adv-x="1024" />

    
    <glyph glyph-name="account-balance-wall" unicode="&#59520;" d="M896 128v-42.666667c0-47.146667-38.186667-85.333333-85.333333-85.333333H213.333333c-47.146667 0-85.333333 38.186667-85.333333 85.333333V682.666667c0 47.146667 38.186667 85.333333 85.333333 85.333333h597.333334c47.146667 0 85.333333-38.186667 85.333333-85.333333v-42.666667H512c-47.146667 0-85.333333-38.186667-85.333333-85.333333v-341.333334c0-47.146667 38.186667-85.333333 85.333333-85.333333h384z m-384 85.333333h426.666667V554.666667H512v-341.333334z m170.666667 106.666667c-35.413333 0-64 28.586667-64 64s28.586667 64 64 64 64-28.586667 64-64-28.586667-64-64-64z"  horiz-adv-x="1024" />

    
    <glyph glyph-name="account-box" unicode="&#59521;" d="M128 682.666667v-597.333334c0-47.146667 38.186667-85.333333 85.333333-85.333333h597.333334c47.146667 0 85.333333 38.186667 85.333333 85.333333V682.666667c0 47.146667-38.186667 85.333333-85.333333 85.333333H213.333333c-47.146667 0-85.333333-38.186667-85.333333-85.333333z m512-170.666667c0-70.826667-57.386667-128-128-128s-128 57.173333-128 128c0 70.613333 57.386667 128 128 128s128-57.386667 128-128zM256 170.666667c0 85.333333 170.666667 132.266667 256 132.266666S768 256 768 170.666667v-42.666667H256v42.666667z"  horiz-adv-x="1024" />

    
    <glyph glyph-name="add-shopping-cart" unicode="&#59522;" d="M469.333333 512h85.333334v128h128V725.333333h-128V853.333333h-85.333334v-128h-128v-85.333333h128v-128z m-170.666666-384c-47.146667 0-84.906667-38.186667-84.906667-85.333333s37.76-85.333333 84.906667-85.333334 85.333333 38.186667 85.333333 85.333334-38.186667 85.333333-85.333333 85.333333z m426.666666 0c-47.146667 0-84.906667-38.186667-84.906666-85.333333s37.76-85.333333 84.906666-85.333334 85.333333 38.186667 85.333334 85.333334-38.186667 85.333333-85.333334 85.333333z m-419.2 138.666667c0 1.92 0.426667 3.626667 1.28 5.12l38.4 69.546666h317.866667c32 0 59.946667 17.706667 74.666667 43.946667l164.693333 299.093333L828.373333 725.333333h-0.213333l-47.146667-85.333333-117.546666-213.333333H364.16l-5.546667 11.52L262.826667 640l-40.533334 85.333333-40.32 85.333334H42.666667v-85.333334h85.333333l153.6-323.626666-57.813333-104.533334c-6.613333-12.373333-10.453333-26.24-10.453334-41.173333 0-47.146667 38.186667-85.333333 85.333334-85.333333h512v85.333333H316.8c-5.973333 0-10.666667 4.693333-10.666667 10.666667z"  horiz-adv-x="1024" />

    
    <glyph glyph-name="alarm" unicode="&#59523;" d="M938.666667 651.946667l-196.053334 164.48-54.826666-65.28 196.053333-164.48L938.666667 651.946667zM336.213333 751.36l-54.826666 65.28L85.333333 652.16l54.826667-65.28 196.053333 164.48zM533.333333 554.666667h-64v-256l202.453334-121.813334L704 229.546667l-170.666667 101.12V554.666667z m-21.546666 170.666666C299.52 725.333333 128 553.386667 128 341.333333s171.52-384 383.786667-384S896 129.28 896 341.333333 724.053333 725.333333 511.786667 725.333333zM512 42.666667c-164.906667 0-298.666667 133.76-298.666667 298.666666s133.76 298.666667 298.666667 298.666667 298.666667-133.76 298.666667-298.666667-133.546667-298.666667-298.666667-298.666666z"  horiz-adv-x="1024" />

    
    <glyph glyph-name="alarm-on" unicode="&#59524;" d="M938.666667 651.946667l-196.053334 164.48-54.826666-65.28 196.053333-164.48L938.666667 651.946667zM336.213333 751.36l-54.826666 65.28L85.333333 652.16l54.826667-65.28 196.053333 164.48zM511.786667 725.333333C299.52 725.333333 128 553.386667 128 341.333333s171.52-384 383.786667-384S896 129.28 896 341.333333 724.053333 725.333333 511.786667 725.333333zM512 42.666667c-164.906667 0-298.666667 133.76-298.666667 298.666666s133.76 298.666667 298.666667 298.666667 298.666667-133.76 298.666667-298.666667-133.546667-298.666667-298.666667-298.666666z m-62.506667 233.6l-90.453333 90.453333-45.226667-45.226667 135.68-135.68 256.213334 256.213334-45.226667 45.226666-210.986667-210.986666z"  horiz-adv-x="1024" />

    
    <glyph glyph-name="alarm-add" unicode="&#59525;" d="M336.213333 751.36l-54.826666 65.28L85.333333 652.16l54.826667-65.28 196.053333 164.48zM938.666667 651.946667l-196.053334 164.48-54.826666-65.28 196.053333-164.48L938.666667 651.946667zM511.786667 725.333333C299.52 725.333333 128 553.386667 128 341.333333s171.52-384 383.786667-384S896 129.28 896 341.333333 724.053333 725.333333 511.786667 725.333333zM512 42.666667c-164.906667 0-298.666667 133.76-298.666667 298.666666s133.76 298.666667 298.666667 298.666667 298.666667-133.76 298.666667-298.666667-133.546667-298.666667-298.666667-298.666666z m42.666667 469.333333h-85.333334v-128h-128v-85.333333h128v-128h85.333334v128h128v85.333333h-128v128z"  horiz-adv-x="1024" />

    
    <glyph glyph-name="all-out" unicode="&#59526;" d="M682.666667 725.333333l170.666666-170.666666V725.333333z m170.666666-512l-170.666666-170.666666h170.666666z m-512-170.666666l-170.666666 170.666666v-170.666666zM170.666667 554.666667l170.666666 170.666666H170.666667z m552.533333 40.533333c-116.693333 116.693333-305.706667 116.693333-422.4 0s-116.693333-305.706667 0-422.4 305.706667-116.693333 422.4 0 116.693333 305.706667 0 422.4z m-46.933333-375.466667c-90.666667-90.666667-237.866667-90.666667-328.533334 0s-90.666667 237.866667 0 328.533334 237.866667 90.666667 328.533334 0 90.666667-237.866667 0-328.533334z"  horiz-adv-x="1024" />

    
    <glyph glyph-name="alarm-off" unicode="&#59527;" d="M512 640c164.906667 0 298.666667-133.76 298.666667-298.666667 0-36.053333-6.613333-70.4-18.346667-102.4l64.853333-64.853333A379.52 379.52 0 0 1 896 341.333333c0 212.053333-171.946667 384-384.213333 384-59.946667 0-116.48-14.08-167.253334-38.613333l65.066667-65.066667c32 11.733333 66.346667 18.346667 102.4 18.346667z m426.666667 11.946667l-196.053334 164.48-54.826666-65.28 196.053333-164.48L938.666667 651.946667zM124.586667 798.08L70.186667 743.893333l56.746666-56.746666-47.36-39.68 60.586667-60.586667 47.36 39.68 34.133333-34.133333A382.805333 382.805333 0 0 1 128 341.333333c0-212.053333 171.52-384 383.786667-384 96.213333 0 183.893333 35.626667 251.093333 93.866667l93.866667-93.866667 54.186666 54.4L166.186667 756.48 124.586667 798.08z m578.133333-686.72A298.026667 298.026667 0 0 0 512 42.666667c-164.906667 0-298.666667 133.76-298.666667 298.666666 0 72.533333 25.813333 138.88 68.693334 190.72l420.693333-420.693333zM341.973333 756.266667l-60.586666 60.586666-36.266667-30.506666 60.586667-60.586667 36.266666 30.506667z"  horiz-adv-x="1024" />

    
    <glyph glyph-name="announcement" unicode="&#59528;" d="M853.333333 810.666667H170.666667C123.52 810.666667 85.76 772.48 85.76 725.333333L85.333333-42.666667l170.666667 170.666667h597.333333c47.146667 0 85.333333 38.186667 85.333334 85.333333V725.333333c0 47.146667-38.186667 85.333333-85.333334 85.333334zM554.666667 426.666667h-85.333334V682.666667h85.333334v-256z m0-170.666667h-85.333334v85.333333h85.333334v-85.333333z"  horiz-adv-x="1024" />

    
    <glyph glyph-name="android" unicode="&#59529;" d="M256.01088 127.98912c0-23.465669 19.199184-42.664853 42.664853-42.664853h42.664853v-149.326987c0-35.411828 28.585452-63.99728 63.99728-63.99728s63.99728 28.585452 63.997281 63.99728v149.326987h85.329706v-149.326987c0-35.411828 28.585452-63.99728 63.997281-63.99728s63.99728 28.585452 63.99728 63.99728v149.326987h42.664853c23.465669 0 42.664853 19.199184 42.664853 42.664853V554.637655H256.01088v-426.648535zM149.348746 554.637655c-35.411828 0-63.99728-28.585452-63.99728-63.997281v-298.653973c0-35.411828 28.585452-63.99728 63.99728-63.997281s63.99728 28.585452 63.99728 63.997281V490.640374c0 35.411828-28.585452 63.99728-63.99728 63.997281z m725.302508 0c-35.411828 0-63.99728-28.585452-63.99728-63.997281v-298.653973c0-35.411828 28.585452-63.99728 63.99728-63.997281s63.99728 28.585452 63.99728 63.997281V490.640374c0 35.411828-28.585452 63.99728-63.99728 63.997281zM662.606933 803.800398l55.677633 55.677634A21.247097 21.247097 0 1 1 688.205845 889.556754L625.061862 826.626095A254.282526 254.282526 0 0 1 512 853.291628c-40.958259 0-79.356627-9.812916-113.701834-26.878857L334.940858 889.770078a21.247097 21.247097 0 1 1-30.078721-30.078722l55.890958-55.890958C297.395787 757.082384 256.01088 681.992242 256.01088 597.302508h511.97824c0 84.903058-41.598232 159.9932-105.382187 206.49789zM426.670293 682.632215h-42.664853V725.297068h42.664853v-42.664853z m213.324267 0h-42.664853V725.297068h42.664853v-42.664853z"  horiz-adv-x="1024" />

    
    <glyph glyph-name="assessment" unicode="&#59530;" d="M810.666667 768H213.333333c-47.146667 0-85.333333-38.186667-85.333333-85.333333v-597.333334c0-47.146667 38.186667-85.333333 85.333333-85.333333h597.333334c47.146667 0 85.333333 38.186667 85.333333 85.333333V682.666667c0 47.146667-38.186667 85.333333-85.333333 85.333333zM384 170.666667h-85.333333V469.333333h85.333333v-298.666666z m170.666667 0h-85.333334V597.333333h85.333334v-426.666666z m170.666666 0h-85.333333v170.666666h85.333333v-170.666666z"  horiz-adv-x="1024" />

    
    <glyph glyph-name="aspect-ratio" unicode="&#59531;" d="M810.666667 384h-85.333334v-128h-128v-85.333333h213.333334V384z m-512 128h128v85.333333H213.333333v-213.333333h85.333334v128zM896 768H128c-47.146667 0-85.333333-38.186667-85.333333-85.333333v-597.333334c0-47.146667 38.186667-85.333333 85.333333-85.333333h768c47.146667 0 85.333333 38.186667 85.333333 85.333333V682.666667c0 47.146667-38.186667 85.333333-85.333333 85.333333z m0-683.306667H128V683.306667h768v-598.613334z"  horiz-adv-x="1024" />

    
    <glyph glyph-name="assignment" unicode="&#59532;" d="M810.666667 768h-178.56c-17.493333 49.493333-64.426667 85.333333-120.106667 85.333333s-102.613333-35.84-120.106667-85.333333H213.333333c-47.146667 0-85.333333-38.186667-85.333333-85.333333v-597.333334c0-47.146667 38.186667-85.333333 85.333333-85.333333h597.333334c47.146667 0 85.333333 38.186667 85.333333 85.333333V682.666667c0 47.146667-38.186667 85.333333-85.333333 85.333333zM512 768c23.466667 0 42.666667-18.986667 42.666667-42.666667s-19.2-42.666667-42.666667-42.666666-42.666667 18.986667-42.666667 42.666666 19.2 42.666667 42.666667 42.666667z m85.333333-597.333333H298.666667v85.333333h298.666666v-85.333333z m128 170.666666H298.666667v85.333334h426.666666v-85.333334z m0 170.666667H298.666667v85.333333h426.666666v-85.333333z"  horiz-adv-x="1024" />

    
    <glyph glyph-name="assignment-ind" unicode="&#59533;" d="M810.666667 768h-178.56c-17.493333 49.493333-64.426667 85.333333-120.106667 85.333333s-102.613333-35.84-120.106667-85.333333H213.333333c-47.146667 0-85.333333-38.186667-85.333333-85.333333v-597.333334c0-47.146667 38.186667-85.333333 85.333333-85.333333h597.333334c47.146667 0 85.333333 38.186667 85.333333 85.333333V682.666667c0 47.146667-38.186667 85.333333-85.333333 85.333333zM512 768c23.466667 0 42.666667-18.986667 42.666667-42.666667s-19.2-42.666667-42.666667-42.666666-42.666667 18.986667-42.666667 42.666666 19.2 42.666667 42.666667 42.666667z m0-170.666667c70.613333 0 128-57.386667 128-128 0-70.826667-57.386667-128-128-128s-128 57.173333-128 128c0 70.613333 57.386667 128 128 128z m256-512H256v59.733334c0 85.333333 170.666667 132.266667 256 132.266666s256-46.933333 256-132.266666V85.333333z"  horiz-adv-x="1024" />

    
    <glyph glyph-name="assignment-late" unicode="&#59534;" d="M810.666667 768h-178.56c-17.493333 49.493333-64.426667 85.333333-120.106667 85.333333s-102.613333-35.84-120.106667-85.333333H213.333333c-47.146667 0-85.333333-38.186667-85.333333-85.333333v-597.333334c0-47.146667 38.186667-85.333333 85.333333-85.333333h597.333334c47.146667 0 85.333333 38.186667 85.333333 85.333333V682.666667c0 47.146667-38.186667 85.333333-85.333333 85.333333zM554.666667 128h-85.333334v85.333333h85.333334v-85.333333z m0 170.666667h-85.333334V554.666667h85.333334v-256z m-42.666667 384c-23.466667 0-42.666667 18.986667-42.666667 42.666666s19.2 42.666667 42.666667 42.666667 42.666667-18.986667 42.666667-42.666667-19.2-42.666667-42.666667-42.666666z"  horiz-adv-x="1024" />

    
    <glyph glyph-name="assignment-return" unicode="&#59535;" d="M810.666667 768h-178.56c-17.493333 49.493333-64.426667 85.333333-120.106667 85.333333s-102.613333-35.84-120.106667-85.333333H213.333333c-47.146667 0-85.333333-38.186667-85.333333-85.333333v-597.333334c0-47.146667 38.186667-85.333333 85.333333-85.333333h597.333334c47.146667 0 85.333333 38.186667 85.333333 85.333333V682.666667c0 47.146667-38.186667 85.333333-85.333333 85.333333zM512 768c23.466667 0 42.666667-18.986667 42.666667-42.666667s-19.2-42.666667-42.666667-42.666666-42.666667 18.986667-42.666667 42.666666 19.2 42.666667 42.666667 42.666667z m170.666667-512h-170.666667v-128L298.666667 341.333333l213.333333 213.333334v-128h170.666667v-170.666667z"  horiz-adv-x="1024" />

    
    <glyph glyph-name="assignment-returned" unicode="&#59536;" d="M810.666667 768h-178.56c-17.493333 49.493333-64.426667 85.333333-120.106667 85.333333s-102.613333-35.84-120.106667-85.333333H213.333333c-47.146667 0-85.333333-38.186667-85.333333-85.333333v-597.333334c0-47.146667 38.186667-85.333333 85.333333-85.333333h597.333334c47.146667 0 85.333333 38.186667 85.333333 85.333333V682.666667c0 47.146667-38.186667 85.333333-85.333333 85.333333zM512 768c23.466667 0 42.666667-18.986667 42.666667-42.666667s-19.2-42.666667-42.666667-42.666666-42.666667 18.986667-42.666667 42.666666 19.2 42.666667 42.666667 42.666667z m0-640L298.666667 341.333333h128v170.666667h170.666666v-170.666667h128L512 128z"  horiz-adv-x="1024" />

    
    <glyph glyph-name="autorenew" unicode="&#59537;" d="M512 640v-128l170.666667 170.666667-170.666667 170.666666v-128C323.413333 725.333333 170.666667 572.586667 170.666667 384c0-66.986667 19.626667-129.066667 52.906666-181.76l62.293334 62.293333c-18.986667 35.626667-29.866667 76.16-29.866667 119.466667 0 141.44 114.56 256 256 256z m288.426667-74.24L738.133333 503.466667c18.986667-35.626667 29.866667-76.16 29.866667-119.466667 0-141.44-114.56-256-256-256v128l-170.666667-170.666667 170.666667-170.666666v128c188.586667 0 341.333333 152.746667 341.333333 341.333333 0 66.986667-19.626667 129.066667-52.906666 181.76z"  horiz-adv-x="1024" />

    
    <glyph glyph-name="assignment-turned-in" unicode="&#59538;" d="M810.666667 768h-178.56c-17.493333 49.493333-64.426667 85.333333-120.106667 85.333333s-102.613333-35.84-120.106667-85.333333H213.333333c-47.146667 0-85.333333-38.186667-85.333333-85.333333v-597.333334c0-47.146667 38.186667-85.333333 85.333333-85.333333h597.333334c47.146667 0 85.333333 38.186667 85.333333 85.333333V682.666667c0 47.146667-38.186667 85.333333-85.333333 85.333333zM512 768c23.466667 0 42.666667-18.986667 42.666667-42.666667s-19.2-42.666667-42.666667-42.666666-42.666667 18.986667-42.666667 42.666666 19.2 42.666667 42.666667 42.666667z m-85.333333-597.333333l-170.666667 170.666666 60.373333 60.373334L426.666667 291.413333l280.96 280.96L768 512 426.666667 170.666667z"  horiz-adv-x="1024" />

    
    <glyph glyph-name="backup" unicode="&#59539;" d="M825.813333 467.84C796.8 614.613333 667.306667 725.333333 512 725.333333c-123.306667 0-230.186667-69.973333-283.733333-172.16C100.053333 539.306667 0 430.72 0 298.666667c0-141.44 114.56-256 256-256h554.666667c117.76 0 213.333333 95.573333 213.333333 213.333333 0 112.64-87.68 203.946667-198.186667 211.84zM597.333333 341.333333v-170.666666h-170.666666v170.666666h-128l213.333333 213.333334 213.333333-213.333334h-128z"  horiz-adv-x="1024" />

    
    <glyph glyph-name="book" unicode="&#59540;" d="M768 810.666667H256C208.853333 810.666667 170.666667 772.48 170.666667 725.333333v-682.666666c0-47.146667 38.186667-85.333333 85.333333-85.333334h512c47.146667 0 85.333333 38.186667 85.333333 85.333334V725.333333c0 47.146667-38.186667 85.333333-85.333333 85.333334zM256 725.333333h213.333333v-341.333333l-106.666666 64-106.666667-64V725.333333z"  horiz-adv-x="1024" />

    
    <glyph glyph-name="bookmark" unicode="&#59541;" d="M725.333333 768H298.666667c-47.146667 0-84.906667-38.186667-84.906667-85.333333L213.333333 0l298.666667 128 298.666667-128V682.666667c0 47.146667-38.186667 85.333333-85.333334 85.333333z"  horiz-adv-x="1024" />

    
    <glyph glyph-name="bookmark-border" unicode="&#59542;" d="M725.333333 768H298.666667c-47.146667 0-84.906667-38.186667-84.906667-85.333333L213.333333 0l298.666667 128 298.666667-128V682.666667c0 47.146667-38.186667 85.333333-85.333334 85.333333z m0-640l-213.333333 92.8L298.666667 128V682.666667h426.666666v-554.666667z"  horiz-adv-x="1024" />

    
    <glyph glyph-name="bug-report" unicode="&#59543;" d="M853.333333 554.666667h-119.893333c-19.2 33.28-45.653333 62.08-77.44 83.626666L725.333333 707.626667 664.96 768l-92.8-92.8c-19.2 4.693333-39.466667 7.466667-60.16 7.466667-20.693333 0-40.96-2.773333-60.16-7.466667L359.04 768 298.666667 707.626667l69.333333-69.333334A254.869333 254.869333 0 0 1 290.56 554.666667H170.666667v-85.333334h89.173333c-2.346667-13.866667-3.84-28.16-3.84-42.666666v-42.666667H170.666667v-85.333333h85.333333v-42.666667c0-14.506667 1.493333-28.8 3.84-42.666667H170.666667v-85.333333h119.893333c44.16-76.373333 126.72-128 221.44-128s177.28 51.626667 221.44 128H853.333333v85.333333h-89.173333c2.346667 13.866667 3.84 28.16 3.84 42.666667v42.666667h85.333333v85.333333h-85.333333v42.666667c0 14.506667-1.493333 28.8-3.84 42.666666H853.333333v85.333334zM597.333333 213.333333h-170.666666v85.333334h170.666666v-85.333334z m0 170.666667h-170.666666v85.333333h170.666666v-85.333333z"  horiz-adv-x="1024" />

    
    <glyph glyph-name="cached" unicode="&#59544;" d="M810.666667 554.666667l-170.666667-170.666667h128c0-141.44-114.56-256-256-256-43.306667 0-83.84 10.88-119.68 29.653333l-62.293333-62.293333C382.933333 62.293333 445.013333 42.666667 512 42.666667c188.586667 0 341.333333 152.746667 341.333333 341.333333h128l-170.666666 170.666667z m-554.666667-170.666667c0 141.44 114.56 256 256 256 43.306667 0 83.84-10.88 119.68-29.653333l62.293333 62.293333C641.066667 705.706667 578.986667 725.333333 512 725.333333 323.413333 725.333333 170.666667 572.586667 170.666667 384H42.666667l170.666666-170.666667 170.666667 170.666667h-128z"  horiz-adv-x="1024" />

    
    <glyph glyph-name="build" unicode="&#59545;" d="M968.533333 87.466667L578.133333 477.866667c38.4 98.133333 17.066667 215.466667-61.866666 294.4-85.333333 85.333333-213.333333 102.4-315.733334 53.333333l185.6-185.6-130.133333-130.133333-185.6 185.6C21.333333 593.066667 38.4 465.066667 123.733333 379.733333c78.933333-78.933333 196.266667-100.266667 294.4-61.866666l390.4-390.4c17.066667-17.066667 44.8-17.066667 59.733334 0l100.266666 100.266666c17.066667 14.933333 17.066667 42.666667 0 59.733334z"  horiz-adv-x="1024" />

    
    <glyph glyph-name="card-giftcard" unicode="&#59546;" d="M853.333333 640h-93.226666c4.693333 13.44 7.893333 27.733333 7.893333 42.666667 0 70.613333-57.386667 128-128 128-44.586667 0-83.84-22.826667-106.666667-57.386667l-21.333333-29.013333-21.333333 29.013333A127.637333 127.637333 0 0 1 384 810.666667c-70.613333 0-128-57.386667-128-128 0-14.933333 2.986667-29.226667 7.893333-42.666667H170.666667c-47.146667 0-84.906667-38.186667-84.906667-85.333333L85.333333 85.333333c0-47.146667 38.186667-85.333333 85.333334-85.333333h682.666666c47.146667 0 85.333333 38.186667 85.333334 85.333333V554.666667c0 47.146667-38.186667 85.333333-85.333334 85.333333zM640 725.333333c23.466667 0 42.666667-19.2 42.666667-42.666666s-19.2-42.666667-42.666667-42.666667-42.666667 19.2-42.666667 42.666667 19.2 42.666667 42.666667 42.666666zM384 725.333333c23.466667 0 42.666667-19.2 42.666667-42.666666s-19.2-42.666667-42.666667-42.666667-42.666667 19.2-42.666667 42.666667 19.2 42.666667 42.666667 42.666666z m469.333333-640H170.666667v85.333334h682.666666v-85.333334z m0 213.333334H170.666667V554.666667h216.746666L298.666667 433.706667 368 384 469.333333 522.026667l42.666667 58.026666 42.666667-58.026666L656 384 725.333333 433.706667 636.586667 554.666667H853.333333v-256z"  horiz-adv-x="1024" />

    
    <glyph glyph-name="card-membership" unicode="&#59547;" d="M853.333333 810.666667H170.666667C123.52 810.666667 85.333333 772.48 85.333333 725.333333v-469.333333c0-47.146667 38.186667-85.333333 85.333334-85.333333h170.666666v-213.333334l170.666667 85.333334 170.666667-85.333334V170.666667h170.666666c47.146667 0 85.333333 38.186667 85.333334 85.333333V725.333333c0 47.146667-38.186667 85.333333-85.333334 85.333334z m0-554.666667H170.666667v85.333333h682.666666v-85.333333z m0 213.333333H170.666667V725.333333h682.666666v-256z"  horiz-adv-x="1024" />

    
    <glyph glyph-name="card-travel" unicode="&#59548;" d="M853.333333 640h-128V725.333333c0 47.146667-38.186667 85.333333-85.333333 85.333334H384c-47.146667 0-85.333333-38.186667-85.333333-85.333334v-85.333333H170.666667c-47.146667 0-85.333333-38.186667-85.333334-85.333333v-469.333334c0-47.146667 38.186667-85.333333 85.333334-85.333333h682.666666c47.146667 0 85.333333 38.186667 85.333334 85.333333V554.666667c0 47.146667-38.186667 85.333333-85.333334 85.333333zM384 725.333333h256v-85.333333H384V725.333333z m469.333333-640H170.666667v85.333334h682.666666v-85.333334z m0 213.333334H170.666667V554.666667h128v-85.333334h85.333333v85.333334h256v-85.333334h85.333333v85.333334h128v-256z"  horiz-adv-x="1024" />

    
    <glyph glyph-name="change-history" unicode="&#59549;" d="M512 564.266667L784.64 128H239.36L512 564.266667M512 725.333333L85.333333 42.666667h853.333334L512 725.333333z"  horiz-adv-x="1024" />

    
    <glyph glyph-name="check-circle" unicode="&#59550;" d="M512 810.666667C276.266667 810.666667 85.333333 619.733333 85.333333 384c0-235.52 190.933333-426.666667 426.666667-426.666667 235.52 0 426.666667 191.146667 426.666667 426.666667 0 235.733333-191.146667 426.666667-426.666667 426.666667z m-85.333333-640L213.333333 384l60.373334 60.373333L426.666667 291.413333l323.626666 323.626667L810.666667 554.666667 426.666667 170.666667z"  horiz-adv-x="1024" />

    
    <glyph glyph-name="chrome-reader-mode" unicode="&#59551;" d="M554.666667 384h298.666666v-64H554.666667z m0 106.666667h298.666666v-64H554.666667z m0-213.333334h298.666666v-64H554.666667zM896 725.333333H128c-46.933333 0-85.333333-38.4-85.333333-85.333333v-554.666667c0-46.933333 38.4-85.333333 85.333333-85.333333h768c46.933333 0 85.333333 38.4 85.333333 85.333333V640c0 46.933333-38.4 85.333333-85.333333 85.333333z m0-640H512V640h384v-554.666667z"  horiz-adv-x="1024" />

    
    <glyph glyph-name="class" unicode="&#59552;" d="M768 810.666667H256C208.853333 810.666667 170.666667 772.48 170.666667 725.333333v-682.666666c0-47.146667 38.186667-85.333333 85.333333-85.333334h512c47.146667 0 85.333333 38.186667 85.333333 85.333334V725.333333c0 47.146667-38.186667 85.333333-85.333333 85.333334zM256 725.333333h213.333333v-341.333333l-106.666666 64-106.666667-64V725.333333z"  horiz-adv-x="1024" />

    
    <glyph glyph-name="code" unicode="&#59553;" d="M401.066667 187.733333L206.933333 384l196.266667 196.266667L341.333333 640 85.333333 384l256-256 59.733334 59.733333z m221.866666 0l196.266667 196.266667-196.266667 196.266667L682.666667 640l256-256-256-256-59.733334 59.733333z"  horiz-adv-x="1024" />

    
    <glyph glyph-name="compare-arrows" unicode="&#59554;" d="M384.426667 298.666667H85.333333v-85.333334h299.093334v-128L554.666667 256l-170.24 170.666667v-128z m255.146666 42.666666v128H938.666667v85.333334H639.573333v128L469.333333 512l170.24-170.666667z"  horiz-adv-x="1024" />

    
    <glyph glyph-name="credit-card" unicode="&#59555;" d="M853.333333 725.333333H170.666667c-47.146667 0-84.906667-38.186667-84.906667-85.333333L85.333333 128c0-47.146667 38.186667-85.333333 85.333334-85.333333h682.666666c47.146667 0 85.333333 38.186667 85.333334 85.333333V640c0 47.146667-38.186667 85.333333-85.333334 85.333333z m0-597.333333H170.666667V384h682.666666v-256z m0 426.666667H170.666667v85.333333h682.666666v-85.333333z"  horiz-adv-x="1024" />

    
    <glyph glyph-name="dashboard" unicode="&#59556;" d="M128 341.333333h341.333333V768H128v-426.666667z m0-341.333333h341.333333V256H128v-256z m426.666667 0h341.333333V426.666667H554.666667v-426.666667z m0 768v-256h341.333333V768H554.666667z"  horiz-adv-x="1024" />

    
    <glyph glyph-name="date-range" unicode="&#59557;" d="M384 426.666667h-85.333333v-85.333334h85.333333v85.333334z m170.666667 0h-85.333334v-85.333334h85.333334v85.333334z m170.666666 0h-85.333333v-85.333334h85.333333v85.333334z m85.333334 298.666666h-42.666667V810.666667h-85.333333v-85.333334H341.333333V810.666667h-85.333333v-85.333334h-42.666667c-47.36 0-84.906667-38.4-84.906666-85.333333L128 42.666667c0-46.933333 37.973333-85.333333 85.333333-85.333334h597.333334c46.933333 0 85.333333 38.4 85.333333 85.333334V640c0 46.933333-38.4 85.333333-85.333333 85.333333z m0-682.666666H213.333333V512h597.333334v-469.333333z"  horiz-adv-x="1024" />

    
    <glyph glyph-name="copyright" unicode="&#59558;" d="M512 810.666667C276.266667 810.666667 85.333333 619.733333 85.333333 384s190.933333-426.666667 426.666667-426.666667 426.666667 190.933333 426.666667 426.666667S747.733333 810.666667 512 810.666667z m0-768c-188.16 0-341.333333 153.173333-341.333333 341.333333S323.84 725.333333 512 725.333333s341.333333-153.173333 341.333333-341.333333-153.173333-341.333333-341.333333-341.333333z m-81.92 389.76c2.346667 13.866667 6.613333 26.24 12.8 37.12s14.72 19.626667 25.173333 26.24c10.026667 6.186667 22.613333 9.6 38.186667 9.813333 10.24-0.213333 19.626667-1.92 27.733333-5.546667 8.746667-3.84 16-8.96 22.186667-15.36s10.88-14.08 14.293333-22.613333 5.333333-17.706667 5.76-27.306667h76.373334c-0.64 20.053333-4.693333 38.4-11.733334 55.04s-17.28 30.933333-30.08 43.093334-28.16 21.333333-46.08 27.946666-37.76 10.026667-59.52 10.026667c-27.733333 0-51.84-4.693333-72.32-14.293333s-37.546667-22.613333-51.2-39.253334-23.893333-35.84-30.506666-57.813333-9.813333-45.226667-9.813334-69.76v-11.733333c0-24.746667 3.413333-48 10.026667-69.973334s16.853333-41.173333 30.506667-57.6 30.72-29.44 51.413333-39.04 44.8-14.293333 72.533333-14.293333c20.053333 0 38.826667 3.2 56.32 9.813333s32.853333 15.573333 46.08 27.093334 23.893333 24.746667 31.573334 40.106666 12.16 31.573333 12.8 49.066667h-76.373334a60.757333 60.757333 0 0 0-21.76-44.16c-6.4-5.333333-13.866667-9.6-22.4-12.586667-8.106667-2.773333-16.64-4.266667-25.813333-4.266666-15.36 0.426667-27.946667 3.626667-38.186667 10.026666-10.666667 6.826667-19.2 15.573333-25.386666 26.453334s-10.453333 23.253333-12.8 37.333333-3.2 27.733333-3.2 42.026667v11.733333c0 14.506667 1.066667 28.8 3.413333 42.666667z"  horiz-adv-x="1024" />

    
    <glyph glyph-name="delete" unicode="&#59559;" d="M256 85.333333c0-47.146667 38.186667-85.333333 85.333333-85.333333h341.333334c47.146667 0 85.333333 38.186667 85.333333 85.333333V597.333333H256v-512zM810.666667 725.333333h-149.333334l-42.666666 42.666667H405.333333l-42.666666-42.666667h-149.333334v-85.333333h597.333334V725.333333z"  horiz-adv-x="1024" />

    
    <glyph glyph-name="delete-forever" unicode="&#59560;" d="M256 85.333333c0-46.933333 38.4-85.333333 85.333333-85.333333h341.333334c46.933333 0 85.333333 38.4 85.333333 85.333333V597.333333H256v-512z m105.173333 303.786667l60.373334 60.373333L512 359.04l90.453333 90.453333 60.373334-60.373333L572.373333 298.666667l90.453334-90.453334-60.373334-60.373333L512 238.293333l-90.453333-90.453333-60.373334 60.373333L451.626667 298.666667l-90.453334 90.453333zM661.333333 725.333333l-42.666666 42.666667H405.333333l-42.666666-42.666667h-149.333334v-85.333333h597.333334V725.333333z"  horiz-adv-x="1024" />

    
    <glyph glyph-name="description" unicode="&#59561;" d="M597.333333 810.666667H256C208.853333 810.666667 171.093333 772.48 171.093333 725.333333L170.666667 42.666667c0-47.146667 37.76-85.333333 84.906666-85.333334H768c47.146667 0 85.333333 38.186667 85.333333 85.333334V554.666667L597.333333 810.666667z m85.333334-682.666667H341.333333v85.333333h341.333334v-85.333333z m0 170.666667H341.333333v85.333333h341.333334v-85.333333z m-128 213.333333V746.666667l234.666666-234.666667H554.666667z"  horiz-adv-x="1024" />

    
    <glyph glyph-name="done" unicode="&#59562;" d="M384 206.08L206.08 384l-60.373333-60.373333L384 85.333333l512 512-60.373333 60.373334z"  horiz-adv-x="1024" />

    
    <glyph glyph-name="dns" unicode="&#59563;" d="M853.333333 341.333333H170.666667c-23.466667 0-42.666667-19.2-42.666667-42.666666v-256c0-23.466667 19.2-42.666667 42.666667-42.666667h682.666666c23.466667 0 42.666667 19.2 42.666667 42.666667V298.666667c0 23.466667-19.2 42.666667-42.666667 42.666666zM298.666667 85.333333c-47.146667 0-85.333333 38.186667-85.333334 85.333334s38.186667 85.333333 85.333334 85.333333 85.333333-38.186667 85.333333-85.333333-38.186667-85.333333-85.333333-85.333334zM853.333333 768H170.666667c-23.466667 0-42.666667-19.2-42.666667-42.666667v-256c0-23.466667 19.2-42.666667 42.666667-42.666666h682.666666c23.466667 0 42.666667 19.2 42.666667 42.666666V725.333333c0 23.466667-19.2 42.666667-42.666667 42.666667zM298.666667 512c-47.146667 0-85.333333 38.186667-85.333334 85.333333s38.186667 85.333333 85.333334 85.333334 85.333333-38.186667 85.333333-85.333334-38.186667-85.333333-85.333333-85.333333z"  horiz-adv-x="1024" />

    
    <glyph glyph-name="done-all" unicode="&#59564;" d="M768 597.333333l-60.373333 60.373334-270.506667-270.72 60.373333-60.373334L768 597.333333z m181.12 60.373334L497.28 206.08 319.36 384l-60.373333-60.373333L497.28 85.333333l512 512-60.16 60.373334zM17.706667 323.626667L256 85.333333l60.373333 60.373334L78.08 384 17.706667 323.626667z"  horiz-adv-x="1024" />

    
    <glyph glyph-name="donut-large" unicode="&#59565;" d="M469.333333 679.253333V810.666667C256 789.333333 85.333333 605.44 85.333333 384s170.666667-405.333333 384-426.666667v131.413334c-128 20.48-256 145.066667-256 295.253333s128 274.773333 256 295.253333zM809.386667 426.666667H938.666667c-20.053333 213.333333-170.666667 363.946667-384 384v-131.413334C682.666667 660.906667 791.04 554.666667 809.386667 426.666667zM554.666667 88.746667V-42.666667c213.333333 20.053333 363.946667 170.666667 384 384h-129.28C791.04 213.333333 682.666667 107.093333 554.666667 88.746667z"  horiz-adv-x="1024" />

    
    <glyph glyph-name="donut-small" unicode="&#59566;" d="M469.333333 505.173333V810.666667C256 789.333333 85.333333 606.293333 85.333333 384s170.666667-405.333333 384-426.666667V262.826667c-42.666667 17.493333-85.333333 64.853333-85.333333 121.173333s42.666667 103.68 85.333333 121.173333zM634.026667 426.666667H938.666667c-20.48 202.666667-170.666667 363.946667-384 384v-305.493334c42.666667-12.8 64.853333-41.813333 79.36-78.506666zM554.666667 262.826667V-42.666667c213.333333 20.053333 363.52 181.333333 384 384H634.026667c-14.506667-36.693333-36.693333-65.706667-79.36-78.506666z"  horiz-adv-x="1024" />

    
    <glyph glyph-name="euro-symbol" unicode="&#59567;" d="M640 106.666667c-106.88 0-199.68 60.586667-245.973333 149.333333H640v85.333333H366.293333c-2.133333 13.866667-3.626667 28.16-3.626666 42.666667s1.493333 28.8 3.626666 42.666667H640v85.333333H394.026667c46.293333 88.746667 138.88 149.333333 245.973333 149.333333 68.906667 0 131.84-25.173333 180.266667-66.773333L896 669.866667A382.72 382.72 0 0 1 640 768c-167.04 0-308.906667-106.88-361.6-256H128v-85.333333h130.56c-1.706667-14.08-2.56-28.16-2.56-42.666667 0-14.506667 0.853333-28.586667 2.56-42.666667H128v-85.333333h150.4c52.693333-149.12 194.56-256 361.6-256 98.346667 0 188.16 37.333333 256 98.133333l-75.733333 75.52A275.818667 275.818667 0 0 0 640 106.666667z"  horiz-adv-x="1024" />

    
    <glyph glyph-name="event" unicode="&#59568;" d="M725.333333 384H512v-213.333333h213.333333V384zM682.666667 853.333333v-85.333333H341.333333V853.333333h-85.333333v-85.333333h-42.666667c-47.146667 0-84.906667-38.186667-84.906666-85.333333L128 85.333333c0-47.146667 38.186667-85.333333 85.333333-85.333333h597.333334c47.146667 0 85.333333 38.186667 85.333333 85.333333V682.666667c0 47.146667-38.186667 85.333333-85.333333 85.333333h-42.666667V853.333333h-85.333333z m128-768H213.333333V554.666667h597.333334v-469.333334z"  horiz-adv-x="1024" />

    
    <glyph glyph-name="event-seat" unicode="&#59569;" d="M170.666667 128v-128h128v128h426.666666v-128h128V256H170.666667z m640 341.333333h128v-128h-128zM85.333333 469.333333h128v-128H85.333333z m640-128H298.666667V682.666667c0 47.146667 38.186667 85.333333 85.333333 85.333333h256c47.146667 0 85.333333-38.186667 85.333333-85.333333v-341.333334z"  horiz-adv-x="1024" />

    
    <glyph glyph-name="exit-to-app" unicode="&#59570;" d="M430.293333 231.04L490.666667 170.666667l213.333333 213.333333-213.333333 213.333333-60.373334-60.373333L540.586667 426.666667H128v-85.333334h412.586667l-110.293334-110.293333zM810.666667 768H213.333333c-47.146667 0-85.333333-38.186667-85.333333-85.333333v-170.666667h85.333333v170.666667h597.333334v-597.333334H213.333333v170.666667H128v-170.666667c0-47.146667 38.186667-85.333333 85.333333-85.333333h597.333334c47.146667 0 85.333333 38.186667 85.333333 85.333333V682.666667c0 47.146667-38.186667 85.333333-85.333333 85.333333z"  horiz-adv-x="1024" />

    
    <glyph glyph-name="explore" unicode="&#59571;" d="M512 430.933333c-25.813333 0-46.933333-21.12-46.933333-46.933333s21.12-46.933333 46.933333-46.933333a46.933333 46.933333 0 0 1 0 93.866666zM512 810.666667C276.266667 810.666667 85.333333 619.733333 85.333333 384c0-235.52 190.933333-426.666667 426.666667-426.666667s426.666667 191.146667 426.666667 426.666667c0 235.733333-190.933333 426.666667-426.666667 426.666667z m93.44-520.106667L256 128l162.56 349.44L768 640l-162.56-349.44z"  horiz-adv-x="1024" />

    
    <glyph glyph-name="face" unicode="&#59572;" d="M384 394.666667a53.333333 53.333333 0 0 1 0-106.666667 53.333333 53.333333 0 0 1 0 106.666667z m256 0a53.333333 53.333333 0 0 1 0-106.666667 53.333333 53.333333 0 0 1 0 106.666667zM512 810.666667C276.266667 810.666667 85.333333 619.733333 85.333333 384s190.933333-426.666667 426.666667-426.666667 426.666667 190.933333 426.666667 426.666667S747.733333 810.666667 512 810.666667z m0-768c-188.16 0-341.333333 153.173333-341.333333 341.333333 0 12.373333 0.853333 24.533333 2.133333 36.48 100.48 44.586667 180.693333 126.933333 222.293333 229.12 77.226667-108.8 204.16-180.266667 347.946667-180.266667 33.066667 0 65.28 4.053333 96 11.306667 9.173333-30.72 14.293333-63.146667 14.293333-96.64 0-188.16-153.173333-341.333333-341.333333-341.333333z"  horiz-adv-x="1024" />

    
    <glyph glyph-name="favorite" unicode="&#59573;" d="M512-14.933333l-61.866667 56.106666C230.4 240.64 85.333333 372.266667 85.333333 533.333333 85.333333 664.96 188.373333 768 320 768c74.24 0 145.493333-34.56 192-88.96C558.506667 733.44 629.76 768 704 768c131.626667 0 234.666667-103.04 234.666667-234.666667 0-161.066667-145.066667-292.693333-364.8-492.16L512-14.933333z"  horiz-adv-x="1024" />

    
    <glyph glyph-name="favorite-border" unicode="&#59574;" d="M704 768c-74.24 0-145.493333-34.56-192-88.96C465.493333 733.44 394.24 768 320 768 188.373333 768 85.333333 664.96 85.333333 533.333333c0-161.066667 145.066667-292.693333 364.8-492.16L512-14.933333l61.866667 56.106666C793.6 240.64 938.666667 372.266667 938.666667 533.333333c0 131.626667-103.04 234.666667-234.666667 234.666667z m-187.52-663.68l-4.48-4.053333-4.48 4.053333C304.64 288.426667 170.666667 410.026667 170.666667 533.333333c0 85.12 64.213333 149.333333 149.333333 149.333334 65.706667 0 129.706667-42.453333 152.106667-100.693334h79.573333C574.293333 640.213333 638.293333 682.666667 704 682.666667c85.12 0 149.333333-64.213333 149.333333-149.333334 0-123.306667-133.973333-244.906667-336.853333-429.013333z"  horiz-adv-x="1024" />

    
    <glyph glyph-name="feedback" unicode="&#59575;" d="M853.333333 810.666667H170.666667C123.52 810.666667 85.76 772.48 85.76 725.333333L85.333333-42.666667l170.666667 170.666667h597.333333c47.146667 0 85.333333 38.186667 85.333334 85.333333V725.333333c0 47.146667-38.186667 85.333333-85.333334 85.333334zM554.666667 298.666667h-85.333334v85.333333h85.333334v-85.333333z m0 170.666666h-85.333334v170.666667h85.333334v-170.666667z"  horiz-adv-x="1024" />

    
    <glyph glyph-name="find-in-page" unicode="&#59576;" d="M853.333333 60.373333V554.666667L597.333333 810.666667H256C208.853333 810.666667 171.093333 772.48 171.093333 725.333333L170.666667 42.666667c0-47.146667 37.76-85.333333 84.906666-85.333334H768c18.986667 0 36.48 6.4 50.56 17.066667l-189.226667 189.226667A210.346667 210.346667 0 0 0 512 128c-117.76 0-213.333333 95.573333-213.333333 213.333333s95.573333 213.333333 213.333333 213.333334 213.333333-95.573333 213.333333-213.333334c0-43.52-13.226667-83.84-35.413333-117.546666L853.333333 60.373333zM384 341.333333c0-70.613333 57.386667-128 128-128s128 57.386667 128 128-57.386667 128-128 128-128-57.386667-128-128z"  horiz-adv-x="1024" />

    
    <glyph glyph-name="flight-land" unicode="&#59577;" d="M106.666667 85.333333h810.666666v-85.333333H106.666667z m306.56 244.48l185.386666-49.706666 226.773334-60.8c34.133333-9.173333 69.12 11.093333 78.293333 45.226666 9.173333 34.133333-11.093333 69.12-45.226667 78.293334l-226.773333 60.8L514.133333 788.48 431.573333 810.666667v-353.28L219.733333 514.133333l-39.68 98.986667-61.866666 16.64v-220.8l68.48-18.346667 226.56-60.8z"  horiz-adv-x="1024" />

    
    <glyph glyph-name="find-replace" unicode="&#59578;" d="M469.333333 640c58.88 0 112.213333-23.893333 150.826667-62.506667L512 469.333333h256V725.333333l-87.466667-87.466666C626.56 691.84 551.893333 725.333333 469.333333 725.333333 318.933333 725.333333 194.773333 613.973333 174.08 469.333333h86.186667c19.84 97.28 105.813333 170.666667 209.066666 170.666667z m240.64-389.76c28.373333 38.613333 47.573333 84.266667 54.613334 133.76H678.4c-19.84-97.28-105.813333-170.666667-209.066667-170.666667-58.88 0-112.213333 23.893333-150.826666 62.506667L426.666667 384H170.666667v-256l87.466666 87.466667c53.973333-53.973333 128.64-87.466667 211.2-87.466667 66.133333 0 127.146667 21.76 176.64 58.24L853.333333-20.906667 916.906667 42.666667l-206.933334 207.573333z"  horiz-adv-x="1024" />

    
    <glyph glyph-name="fingerprint" unicode="&#59579;" d="M759.893333 705.28c-3.413333 0-6.613333 0.853333-9.813333 2.346667C668.373333 749.866667 597.333333 768 512.426667 768c-84.693333 0-164.48-20.266667-237.653334-60.16a21.418667 21.418667 0 0 0-20.48 37.546667C333.866667 788.693333 420.693333 810.666667 512.426667 810.666667c90.88 0 170.24-20.053333 257.28-65.066667 10.453333-5.333333 14.506667-18.346667 9.173333-28.8-3.84-7.253333-11.306667-11.52-18.986667-11.52zM149.333333 481.28c-4.266667 0-8.533333 1.28-12.373333 3.84a21.248 21.248 0 0 0-5.12 29.653333c42.24 59.733333 96.213333 106.666667 160.213333 139.733334 134.186667 69.333333 305.706667 69.546667 440.106667 0.426666 63.786667-32.853333 117.546667-79.36 160-138.666666 6.826667-9.6 4.693333-22.826667-4.906667-29.653334-9.6-6.826667-23.04-4.693333-29.866666 4.906667-38.4 53.76-87.04 96-144.64 125.44-122.453333 62.933333-278.826667 62.72-401.066667-0.426667-57.813333-29.866667-106.666667-72.32-144.853333-126.506666-4.266667-5.76-10.88-8.746667-17.493334-8.746667z m266.88-514.773333c-5.546667 0-10.88 2.133333-15.146666 6.4-36.906667 37.333333-56.96 61.013333-85.76 112.426666-29.44 52.48-45.013333 116.693333-45.013334 185.386667 0 126.72 108.373333 229.973333 241.706667 229.973333s241.706667-103.04 241.706667-229.973333c0-11.733333-9.6-21.333333-21.333334-21.333333s-21.333333 9.6-21.333333 21.333333c0 103.253333-89.173333 187.306667-199.04 187.306667-109.653333 0-199.04-84.053333-199.04-187.306667 0-61.44 13.653333-118.186667 39.466667-164.48 27.52-49.066667 45.866667-70.186667 78.72-103.253333 8.32-8.32 8.32-21.973333-0.213334-30.08-3.84-4.48-9.386667-6.4-14.72-6.4z m305.706667 78.933333c-50.773333 0-95.36 12.8-132.266667 37.76-63.36 43.093333-101.333333 113.066667-101.333333 187.306667 0 11.733333 9.6 21.333333 21.333333 21.333333s21.333333-9.6 21.333334-21.333333c0-59.946667 30.933333-116.693333 82.773333-151.893334 30.08-20.48 65.493333-30.506667 108.16-30.506666 10.24 0 27.52 1.066667 44.586667 4.053333 11.52 2.133333 22.613333-5.76 24.746666-17.28 2.133333-11.52-5.76-22.613333-17.28-24.746667-24.96-4.48-46.08-4.693333-52.053333-4.693333zM635.946667-42.666667c-1.92 0-3.84 0.213333-5.546667 0.853334-68.053333 18.56-112.426667 43.733333-158.506667 89.6a312.362667 312.362667 0 0 0-92.373333 222.72c0 69.333333 58.88 125.653333 131.413333 125.653333 72.533333 0 131.413333-56.32 131.413334-125.653333 0-45.653333 39.893333-82.986667 88.746666-82.986667s88.746667 37.12 88.746667 82.986667c0 160.853333-138.666667 291.626667-309.12 291.626666-121.386667 0-232.106667-67.413333-282.026667-171.946666-16.64-34.56-24.96-74.88-24.96-119.68 0-33.28 2.986667-85.76 28.373334-153.813334 4.053333-11.093333-1.493333-23.253333-12.586667-27.52-11.093333-4.053333-23.253333 1.493333-27.52 12.586667-20.906667 56.106667-31.146667 111.146667-31.146667 168.746667 0 51.2 9.813333 97.706667 29.226667 138.026666 56.96 119.04 182.826667 196.053333 320.426667 196.053334 193.92 0 351.786667-149.973333 351.786666-334.293334 0-69.333333-59.093333-125.653333-131.413333-125.653333s-131.413333 56.32-131.413333 125.653333c0 45.653333-39.893333 82.986667-88.746667 82.986667s-88.746667-37.12-88.746667-82.986667c0-72.746667 28.373333-141.226667 79.786667-192.426666 40.32-40.106667 79.573333-62.293333 139.733333-78.72 11.306667-3.2 18.133333-14.933333 14.933334-26.24-2.56-9.386667-11.093333-15.573333-20.48-15.573334z"  horiz-adv-x="1024" />

    
    <glyph glyph-name="extension" unicode="&#59580;" d="M874.666667 426.666667h-64v170.666666c0 47.146667-38.186667 85.333333-85.333334 85.333334h-170.666666V746.666667c0 58.88-47.786667 106.666667-106.666667 106.666666s-106.666667-47.786667-106.666667-106.666666v-64H170.666667c-47.146667 0-84.906667-38.186667-84.906667-85.333334l-0.213333-162.133333H149.333333c63.573333 0 115.2-51.626667 115.2-115.2S212.906667 204.8 149.333333 204.8H85.546667L85.333333 42.666667c0-47.146667 38.186667-85.333333 85.333334-85.333334h162.133333v64c0 63.573333 51.626667 115.2 115.2 115.2 63.573333 0 115.2-51.626667 115.2-115.2v-64H725.333333c47.146667 0 85.333333 38.186667 85.333334 85.333334v170.666666h64c58.88 0 106.666667 47.786667 106.666666 106.666667s-47.786667 106.666667-106.666666 106.666667z"  horiz-adv-x="1024" />

    
    <glyph glyph-name="flight-takeoff" unicode="&#59581;" d="M106.666667 85.333333h810.666666v-85.333333H106.666667z m834.986666 399.573334a63.893333 63.893333 0 0 1-78.293333 45.226666L636.586667 469.333333 342.186667 743.893333l-82.346667-22.186666 176.64-306.133334-212.053333-56.746666-83.84 65.92-61.866667-16.64 77.653333-134.613334 32.64-56.533333 68.48 18.346667 226.773334 60.8 185.386666 49.706666 226.773334 60.8c34.133333 9.173333 54.4 44.16 45.226666 78.293334z"  horiz-adv-x="1024" />

    
    <glyph glyph-name="flip-to-back" unicode="&#59582;" d="M384 597.333333h-85.333333v-85.333333h85.333333v85.333333z m0-170.666666h-85.333333v-85.333334h85.333333v85.333334z m0 341.333333c-47.146667 0-85.333333-38.186667-85.333333-85.333333h85.333333V768z m170.666667-512h-85.333334v-85.333333h85.333334v85.333333zM810.666667 768v-85.333333h85.333333c0 47.146667-38.186667 85.333333-85.333333 85.333333zM554.666667 768h-85.333334v-85.333333h85.333334V768z m-170.666667-597.333333v85.333333h-85.333333c0-47.146667 38.186667-85.333333 85.333333-85.333333z m426.666667 170.666666h85.333333v85.333334h-85.333333v-85.333334z m0 170.666667h85.333333v85.333333h-85.333333v-85.333333z m0-341.333333c47.146667 0 85.333333 38.186667 85.333333 85.333333h-85.333333v-85.333333zM213.333333 597.333333H128v-512c0-47.146667 38.186667-85.333333 85.333333-85.333333h512v85.333333H213.333333V597.333333z m426.666667 85.333334h85.333333V768h-85.333333v-85.333333z m0-512h85.333333v85.333333h-85.333333v-85.333333z"  horiz-adv-x="1024" />

    
    <glyph glyph-name="get-app" unicode="&#59583;" d="M810.666667 512h-170.666667V768H384v-256h-170.666667l298.666667-298.666667 298.666667 298.666667zM213.333333 128v-85.333333h597.333334v85.333333H213.333333z"  horiz-adv-x="1024" />

    
    <glyph glyph-name="flip-to-front" unicode="&#59584;" d="M128 341.333333h85.333333v85.333334H128v-85.333334z m0-170.666666h85.333333v85.333333H128v-85.333333z m85.333333-170.666667v85.333333H128c0-47.146667 38.186667-85.333333 85.333333-85.333333zM128 512h85.333333v85.333333H128v-85.333333z m512-512h85.333333v85.333333h-85.333333v-85.333333z m170.666667 768H384c-47.146667 0-85.333333-38.186667-85.333333-85.333333v-426.666667c0-47.146667 38.186667-85.333333 85.333333-85.333333h426.666667c47.146667 0 85.333333 38.186667 85.333333 85.333333V682.666667c0 47.146667-38.186667 85.333333-85.333333 85.333333z m0-512H384V682.666667h426.666667v-426.666667zM469.333333 0h85.333334v85.333333h-85.333334v-85.333333z m-170.666666 0h85.333333v85.333333h-85.333333v-85.333333z"  horiz-adv-x="1024" />

    
    <glyph glyph-name="gavel" unicode="&#59585;" d="M42.666667 0h512v-85.333333H42.666667z m181.12 551.637333l120.704 120.682667L947.882667 68.906667l-120.682667-120.661334zM525.376 853.205333L766.72 611.84l-120.661333-120.661333L404.693333 732.522667z m-362.026667-362.026666L404.693333 249.813333l-120.661333-120.682666L42.666667 370.496z"  horiz-adv-x="1024" />

    
    <glyph glyph-name="group-work" unicode="&#59586;" d="M512 810.666667C276.266667 810.666667 85.333333 619.733333 85.333333 384c0-235.52 190.933333-426.666667 426.666667-426.666667s426.666667 191.146667 426.666667 426.666667c0 235.733333-190.933333 426.666667-426.666667 426.666667z m-170.666667-661.333334c-58.88 0-106.666667 47.786667-106.666666 106.666667s47.786667 106.666667 106.666666 106.666667 106.666667-47.786667 106.666667-106.666667-47.786667-106.666667-106.666667-106.666667z m64 405.333334c0 58.88 47.786667 106.666667 106.666667 106.666666s106.666667-47.786667 106.666667-106.666666-47.786667-106.666667-106.666667-106.666667-106.666667 47.786667-106.666667 106.666667z m277.333334-405.333334c-58.88 0-106.666667 47.786667-106.666667 106.666667s47.786667 106.666667 106.666667 106.666667 106.666667-47.786667 106.666666-106.666667-47.786667-106.666667-106.666666-106.666667z"  horiz-adv-x="1024" />

    
    <glyph glyph-name="grade" unicode="&#59587;" d="M512 159.146667L775.68 0l-69.76 299.946667L938.666667 501.546667l-306.773334 26.453333L512 810.666667l-119.893333-282.666667L85.333333 501.546667l232.746667-201.6L248.32 0z"  horiz-adv-x="1024" />

    
    <glyph glyph-name="g-translate" unicode="&#59588;" d="M853.333333 682.666667H464.213333L426.666667 810.666667H170.666667C123.733333 810.666667 85.333333 772.266667 85.333333 725.333333v-554.666666c0-46.933333 38.4-85.333333 85.333334-85.333334h298.666666l42.666667-128h341.333333c46.933333 0 85.333333 38.4 85.333334 85.333334V597.333333c0 46.933333-38.4 85.333333-85.333334 85.333334zM305.706667 273.706667c-96.213333 0-174.293333 78.293333-174.293334 174.293333s78.293333 174.293333 174.293334 174.293333c44.373333 0 84.693333-15.786667 116.693333-45.44l2.773333-2.773333-52.053333-50.346667-2.56 2.346667c-12.16 11.52-33.28 24.96-64.853333 24.96-55.893333 0-101.333333-46.293333-101.333334-103.253333s45.44-103.253333 101.333334-103.253334c58.453333 0 83.84 37.333333 90.666666 62.293334h-94.293333v66.133333h168.533333l0.64-2.986667c1.706667-8.96 2.346667-16.853333 2.346667-25.813333-0.213333-100.48-69.12-170.453333-167.893333-170.453333z m257.493333 72.533333c14.293333-25.6 31.573333-50.133333 50.773333-72.533333l-22.826666-22.613334-27.946667 95.146667z m32.853333 32.853333h-42.24l-13.013333 44.373334h170.453333s-14.506667-56.106667-66.56-116.693334a339.669333 339.669333 0 0 0-48.64 72.32zM896 42.666667c0-23.466667-19.2-42.666667-42.666667-42.666667H554.666667l85.333333 85.333333-34.773333 117.973334 39.253333 39.253333L759.04 128l31.146667 31.146667-115.413334 114.56c38.4 44.16 68.266667 96 81.706667 149.546666H810.666667v44.373334h-155.093334V512h-44.373333v-44.373333h-83.626667L476.8 640H853.333333c23.466667 0 42.666667-19.2 42.666667-42.666667v-554.666666z"  horiz-adv-x="1024" />

    
    <glyph glyph-name="highlight-off" unicode="&#59589;" d="M622.293333 554.666667L512 444.373333 401.706667 554.666667 341.333333 494.293333 451.626667 384 341.333333 273.706667 401.706667 213.333333 512 323.626667 622.293333 213.333333 682.666667 273.706667 572.373333 384 682.666667 494.293333 622.293333 554.666667zM512 810.666667C276.266667 810.666667 85.333333 619.733333 85.333333 384s190.933333-426.666667 426.666667-426.666667 426.666667 190.933333 426.666667 426.666667S747.733333 810.666667 512 810.666667z m0-768c-188.16 0-341.333333 153.173333-341.333333 341.333333S323.84 725.333333 512 725.333333s341.333333-153.173333 341.333333-341.333333-153.173333-341.333333-341.333333-341.333333z"  horiz-adv-x="1024" />

    
    <glyph glyph-name="help" unicode="&#59590;" d="M512 810.666667C276.266667 810.666667 85.333333 619.733333 85.333333 384s190.933333-426.666667 426.666667-426.666667 426.666667 190.933333 426.666667 426.666667S747.733333 810.666667 512 810.666667z m42.666667-725.333334h-85.333334v85.333334h85.333334v-85.333334z m88.106666 330.453334l-38.186666-39.253334C573.866667 345.813333 554.666667 320 554.666667 256h-85.333334v21.333333c0 47.146667 19.2 89.813333 49.92 120.746667l53.12 53.76C587.733333 467.2 597.333333 488.533333 597.333333 512c0 47.146667-38.186667 85.333333-85.333333 85.333333s-85.333333-38.186667-85.333333-85.333333h-85.333334c0 94.293333 76.373333 170.666667 170.666667 170.666667s170.666667-76.373333 170.666667-170.666667c0-37.546667-15.146667-71.466667-39.893334-96.213333z"  horiz-adv-x="1024" />

    
    <glyph glyph-name="home" unicode="&#59591;" d="M426.666667 42.666667V298.666667h170.666666v-256h213.333334V384h128L512 768 85.333333 384h128v-341.333333z"  horiz-adv-x="1024" />

    
    <glyph glyph-name="history" unicode="&#59592;" d="M554.453333 768C342.186667 768 170.666667 596.053333 170.666667 384H42.666667l166.186666-166.186667 2.986667-6.186666L384 384h-128c0 164.906667 133.76 298.666667 298.666667 298.666667s298.666667-133.76 298.666666-298.666667-133.76-298.666667-298.666666-298.666667c-82.56 0-157.013333 33.706667-210.986667 87.68l-60.373333-60.373333C352.64 43.093333 448.426667 0 554.453333 0 766.72 0 938.666667 171.946667 938.666667 384S766.72 768 554.453333 768zM512 554.666667v-213.333334l182.613333-108.373333L725.333333 284.8l-149.333333 88.533333V554.666667h-64z"  horiz-adv-x="1024" />

    
    <glyph glyph-name="hourglass-empty" unicode="&#59593;" d="M256 789.333333v-213.333333l192-192-192-192v-213.333333h512V192l-192 192 192 192V789.333333H256z m426.666667-618.666666v-106.666667H341.333333v106.666667l170.666667 170.666666 170.666667-170.666666z m-170.666667 256l-170.666667 170.666666V704h341.333334v-106.666667l-170.666667-170.666666z"  horiz-adv-x="1024" />

    
    <glyph glyph-name="hourglass-full" unicode="&#59594;" d="M682.666667 810.666667H256v-234.666667h0.426667l-0.426667-0.426667L447.573333 384 256 192.426667l0.426667-0.426667H256v-234.666667h512V192h-0.426667l0.426667 0.426667L576.426667 384 768 575.573333l-0.426667 0.426667H768V810.666667h-85.333333z"  horiz-adv-x="1024" />

    
    <glyph glyph-name="https" unicode="&#59595;" d="M768 554.666667h-42.666667v85.333333c0 117.76-95.573333 213.333333-213.333333 213.333333S298.666667 757.76 298.666667 640v-85.333333h-42.666667c-47.146667 0-85.333333-38.186667-85.333333-85.333334v-426.666666c0-47.146667 38.186667-85.333333 85.333333-85.333334h512c47.146667 0 85.333333 38.186667 85.333333 85.333334V469.333333c0 47.146667-38.186667 85.333333-85.333333 85.333334zM512 170.666667c-47.146667 0-85.333333 38.186667-85.333333 85.333333s38.186667 85.333333 85.333333 85.333333 85.333333-38.186667 85.333333-85.333333-38.186667-85.333333-85.333333-85.333333z m132.266667 384H379.733333v85.333333c0 72.96 59.306667 132.266667 132.266667 132.266667 72.96 0 132.266667-59.306667 132.266667-132.266667v-85.333333z"  horiz-adv-x="1024" />

    
    <glyph glyph-name="http" unicode="&#59596;" d="M192 426.666667H106.666667v85.333333H42.666667v-256h64v106.666667h85.333333v-106.666667h64V512H192v-85.333333z m106.666667 21.333333h64v-192h64v192h64v64h-192v-64z m234.666666 0h64v-192h64v192h64v64h-192v-64z m384 64h-149.333333v-256h64v85.333333h85.333333c36.266667 0 64 27.733333 64 64v42.666667c0 36.266667-27.733333 64-64 64z m0-106.666667h-85.333333v42.666667h85.333333v-42.666667z"  horiz-adv-x="1024" />

    
    <glyph glyph-name="info" unicode="&#59597;" d="M512 810.666667C276.266667 810.666667 85.333333 619.733333 85.333333 384s190.933333-426.666667 426.666667-426.666667 426.666667 190.933333 426.666667 426.666667S747.733333 810.666667 512 810.666667z m42.666667-640h-85.333334V426.666667h85.333334v-256z m0 341.333333h-85.333334v85.333333h85.333334v-85.333333z"  horiz-adv-x="1024" />

    
    <glyph glyph-name="info-outline" unicode="&#59598;" d="M469.333333 170.666667h85.333334V426.666667h-85.333334v-256z m42.666667 640C276.266667 810.666667 85.333333 619.733333 85.333333 384s190.933333-426.666667 426.666667-426.666667 426.666667 190.933333 426.666667 426.666667S747.733333 810.666667 512 810.666667z m0-768c-188.16 0-341.333333 153.173333-341.333333 341.333333S323.84 725.333333 512 725.333333s341.333333-153.173333 341.333333-341.333333-153.173333-341.333333-341.333333-341.333333z m-42.666667 469.333333h85.333334v85.333333h-85.333334v-85.333333z"  horiz-adv-x="1024" />

    
    <glyph glyph-name="important-devices" unicode="&#59599;" d="M640 512h-129.28L469.333333 640l-41.386666-128H298.666667l105.386666-75.093333-40.106666-124.16 105.386666 76.8 105.386667-76.8-40.106667 124.16z m0 0h-129.28L469.333333 640l-41.386666-128H298.666667l105.386666-75.093333-40.106666-124.16 105.386666 76.8 105.386667-76.8-40.106667 124.16z m341.333333-85.546667L768 426.666667c-23.466667 0-42.666667-19.2-42.666667-42.666667v-384c0-23.466667 19.2-42.666667 42.666667-42.666667h213.333333c23.466667 0 42.666667 19.2 42.666667 42.666667V384c0 23.466667-19.2 42.453333-42.666667 42.453333zM981.333333 42.666667H768V341.333333h213.333333v-298.666666zM853.333333 810.666667H85.333333C37.973333 810.666667 0 772.693333 0 725.333333v-512c0-46.933333 37.973333-85.333333 85.333333-85.333333h298.666667v-85.333333h-85.333333v-85.333334h341.333333v85.333334h-85.333333v85.333333h85.333333v85.333333H85.333333V725.333333h768v-213.333333h85.333334V725.333333c0 47.36-38.4 85.333333-85.333334 85.333334zM510.72 512L469.333333 640l-41.386666-128H298.666667l105.386666-75.093333-40.106666-124.16 105.386666 76.8 105.386667-76.8-40.106667 124.16L640 512h-129.28z"  horiz-adv-x="1024" />

    
    <glyph glyph-name="invert-colors" unicode="&#59600;" d="M753.28 557.653333L512 799.146667 270.72 557.653333c-133.333333-133.333333-133.333333-349.44 0-482.773333 66.56-66.56 154.026667-100.053333 241.28-100.053333s174.72 33.28 241.28 100.053333c133.333333 133.333333 133.333333 349.44 0 482.773333zM512 60.373333c-68.48 0-132.693333 26.666667-180.906667 75.093334-48.426667 48.213333-75.093333 112.426667-75.093333 180.906666s26.666667 132.693333 75.093333 181.12L512 678.4v-618.026667z"  horiz-adv-x="1024" />

    
    <glyph glyph-name="input" unicode="&#59601;" d="M896 767.573333H128c-47.146667 0-85.333333-38.186667-85.333333-85.333333V512h85.333333V683.093333h768v-598.613333H128V256H42.666667v-171.093333c0-47.146667 38.186667-84.48 85.333333-84.48h768c47.146667 0 85.333333 37.546667 85.333333 84.48v597.333333c0 47.146667-38.186667 85.333333-85.333333 85.333333zM469.333333 213.333333l170.666667 170.666667-170.666667 170.666667v-128H42.666667v-85.333334h426.666666v-128z"  horiz-adv-x="1024" />

    
    <glyph glyph-name="label" unicode="&#59602;" d="M752.426667 646.613333A85.653333 85.653333 0 0 1 682.666667 682.666667l-469.333334-0.426667c-47.146667 0-85.333333-37.76-85.333333-84.906667v-426.666666c0-47.146667 38.186667-84.906667 85.333333-84.906667L682.666667 85.333333c28.8 0 54.186667 14.293333 69.76 36.053334L938.666667 384l-186.24 262.613333z"  horiz-adv-x="1024" />

    
    <glyph glyph-name="label-outline" unicode="&#59603;" d="M752.426667 646.613333A85.653333 85.653333 0 0 1 682.666667 682.666667l-469.333334-0.426667c-47.146667 0-85.333333-37.76-85.333333-84.906667v-426.666666c0-47.146667 38.186667-84.906667 85.333333-84.906667L682.666667 85.333333c28.8 0 54.186667 14.293333 69.76 36.053334L938.666667 384l-186.24 262.613333zM682.666667 170.666667H213.333333V597.333333h469.333334l151.253333-213.333333L682.666667 170.666667z"  horiz-adv-x="1024" />

    
    <glyph glyph-name="launch" unicode="&#59604;" d="M810.666667 85.333333H213.333333V682.666667h298.666667V768H213.333333c-47.146667 0-85.333333-38.186667-85.333333-85.333333v-597.333334c0-47.146667 38.186667-85.333333 85.333333-85.333333h597.333334c47.146667 0 85.333333 38.186667 85.333333 85.333333V384h-85.333333v-298.666667zM597.333333 768v-85.333333h152.96L330.88 263.253333l60.373333-60.373333L810.666667 622.293333V469.333333h85.333333V768H597.333333z"  horiz-adv-x="1024" />

    
    <glyph glyph-name="language" unicode="&#59605;" d="M511.786667 810.666667C276.053333 810.666667 85.333333 619.733333 85.333333 384s190.72-426.666667 426.453334-426.666667C747.52-42.666667 938.666667 148.266667 938.666667 384S747.52 810.666667 511.786667 810.666667z m295.466666-256h-125.866666c-13.866667 53.333333-33.28 104.533333-58.88 151.893333 78.506667-26.88 143.786667-81.28 184.746666-151.893333zM512 723.84c35.626667-51.2 63.36-108.16 81.493333-169.173333h-162.986666c18.133333 61.013333 45.866667 117.973333 81.493333 169.173333zM181.76 298.666667C174.72 325.973333 170.666667 354.56 170.666667 384s4.053333 58.026667 11.093333 85.333333h144c-3.413333-27.946667-5.76-56.32-5.76-85.333333 0-29.013333 2.346667-57.386667 5.973333-85.333333H181.76z m34.773333-85.333334h125.866667c13.866667-53.333333 33.28-104.533333 58.88-152.106666A342.058667 342.058667 0 0 0 216.533333 213.333333z m125.866667 341.333334h-125.866667c40.96 70.613333 106.24 125.226667 184.746667 152.106666-25.6-47.573333-45.013333-98.773333-58.88-152.106666zM512 44.16c-35.413333 51.2-63.146667 108.16-81.493333 169.173333h162.986666c-18.346667-61.013333-46.08-117.973333-81.493333-169.173333zM611.84 298.666667h-199.68c-4.053333 27.946667-6.826667 56.32-6.826667 85.333333 0 29.013333 2.773333 57.386667 6.826667 85.333333h199.68c4.053333-27.946667 6.826667-56.32 6.826667-85.333333 0-29.013333-2.773333-57.386667-6.826667-85.333333z m10.88-237.226667c25.6 47.573333 45.013333 98.56 58.88 151.893333h125.866667a343.189333 343.189333 0 0 0-184.746667-151.893333zM698.026667 298.666667c3.413333 27.946667 5.973333 56.32 5.973333 85.333333 0 29.013333-2.346667 57.386667-5.973333 85.333333h144c7.04-27.306667 11.306667-55.893333 11.306666-85.333333s-4.053333-58.026667-11.306666-85.333333h-144z"  horiz-adv-x="1024" />

    
    <glyph glyph-name="lightbulb-outline" unicode="&#59606;" d="M384 0c0-23.466667 19.2-42.666667 42.666667-42.666667h170.666666c23.466667 0 42.666667 19.2 42.666667 42.666667v42.666667H384v-42.666667z m128 810.666667c-164.906667 0-298.666667-133.76-298.666667-298.666667 0-101.546667 50.773333-190.933333 128-244.906667V170.666667c0-23.466667 19.2-42.666667 42.666667-42.666667h256c23.466667 0 42.666667 19.2 42.666667 42.666667v96.426666c77.226667 53.973333 128 143.36 128 244.906667 0 164.906667-133.76 298.666667-298.666667 298.666667z m121.813333-473.6L597.333333 311.68V213.333333h-170.666666v98.133334l-36.48 25.386666a213.546667 213.546667 0 0 0-91.52 174.933334c0 117.546667 95.786667 213.333333 213.333333 213.333333s213.333333-95.786667 213.333333-213.333333c0-69.333333-34.133333-134.613333-91.52-174.72z"  horiz-adv-x="1024" />

    
    <glyph glyph-name="line-style" unicode="&#59607;" d="M128 213.333333h213.333333v85.333334H128v-85.333334z m277.333333 0h213.333334v85.333334H405.333333v-85.333334z m277.333334 0h213.333333v85.333334H682.666667v-85.333334zM128 42.666667h85.333333v85.333333H128v-85.333333z m170.666667 0h85.333333v85.333333h-85.333333v-85.333333z m170.666666 0h85.333334v85.333333h-85.333334v-85.333333z m170.666667 0h85.333333v85.333333h-85.333333v-85.333333z m170.666667 0h85.333333v85.333333h-85.333333v-85.333333zM128 384h341.333333v85.333333H128v-85.333333z m426.666667 0h341.333333v85.333333H554.666667v-85.333333zM128 725.333333v-170.666666h768V725.333333H128z"  horiz-adv-x="1024" />

    
    <glyph glyph-name="line-weight" unicode="&#59608;" d="M128 170.666667h768v85.333333H128v-85.333333z m0-128h768v42.666666H128v-42.666666z m0 298.666666h768v128H128v-128zM128 725.333333v-170.666666h768V725.333333H128z"  horiz-adv-x="1024" />

    
    <glyph glyph-name="list" unicode="&#59609;" d="M128 341.333333h85.333333v85.333334H128v-85.333334z m0-170.666666h85.333333v85.333333H128v-85.333333z m0 341.333333h85.333333v85.333333H128v-85.333333z m170.666667-170.666667h597.333333v85.333334H298.666667v-85.333334z m0-170.666666h597.333333v85.333333H298.666667v-85.333333z m0 426.666666v-85.333333h597.333333v85.333333H298.666667z"  horiz-adv-x="1024" />

    
    <glyph glyph-name="lock-outline" unicode="&#59610;" d="M512 170.666667c46.933333 0 85.333333 38.4 85.333333 85.333333s-38.4 85.333333-85.333333 85.333333-85.333333-38.4-85.333333-85.333333 38.4-85.333333 85.333333-85.333333z m256 384h-42.666667v85.333333c0 117.76-95.573333 213.333333-213.333333 213.333333S298.666667 757.76 298.666667 640v-85.333333h-42.666667c-46.933333 0-85.333333-38.4-85.333333-85.333334v-426.666666c0-46.933333 38.4-85.333333 85.333333-85.333334h512c46.933333 0 85.333333 38.4 85.333333 85.333334V469.333333c0 46.933333-38.4 85.333333-85.333333 85.333334z m-388.266667 85.333333c0 72.96 59.306667 132.266667 132.266667 132.266667s132.266667-59.306667 132.266667-132.266667v-85.333333H379.733333v85.333333zM768 42.666667H256V469.333333h512v-426.666666z"  horiz-adv-x="1024" />

    
    <glyph glyph-name="lock-open" unicode="&#59611;" d="M512 170.666667c47.146667 0 85.333333 38.186667 85.333333 85.333333s-38.186667 85.333333-85.333333 85.333333-85.333333-38.186667-85.333333-85.333333 38.186667-85.333333 85.333333-85.333333z m256 384h-42.666667v85.333333c0 117.76-95.573333 213.333333-213.333333 213.333333S298.666667 757.76 298.666667 640h81.066666c0 72.96 59.306667 132.266667 132.266667 132.266667 72.96 0 132.266667-59.306667 132.266667-132.266667v-85.333333H256c-47.146667 0-85.333333-38.186667-85.333333-85.333334v-426.666666c0-47.146667 38.186667-85.333333 85.333333-85.333334h512c47.146667 0 85.333333 38.186667 85.333333 85.333334V469.333333c0 47.146667-38.186667 85.333333-85.333333 85.333334z m0-512H256V469.333333h512v-426.666666z"  horiz-adv-x="1024" />

    
    <glyph glyph-name="lock" unicode="&#59612;" d="M768 554.666667h-42.666667v85.333333c0 117.76-95.573333 213.333333-213.333333 213.333333S298.666667 757.76 298.666667 640v-85.333333h-42.666667c-47.146667 0-85.333333-38.186667-85.333333-85.333334v-426.666666c0-47.146667 38.186667-85.333333 85.333333-85.333334h512c47.146667 0 85.333333 38.186667 85.333333 85.333334V469.333333c0 47.146667-38.186667 85.333333-85.333333 85.333334zM512 170.666667c-47.146667 0-85.333333 38.186667-85.333333 85.333333s38.186667 85.333333 85.333333 85.333333 85.333333-38.186667 85.333333-85.333333-38.186667-85.333333-85.333333-85.333333z m132.266667 384H379.733333v85.333333c0 72.96 59.306667 132.266667 132.266667 132.266667 72.96 0 132.266667-59.306667 132.266667-132.266667v-85.333333z"  horiz-adv-x="1024" />

    
    <glyph glyph-name="markunread-mailbox" unicode="&#59613;" d="M853.333333 640H426.666667v-256h-85.333334V725.333333h256V896H256v-256H170.666667c-46.933333 0-85.333333-38.4-85.333334-85.333333v-512c0-46.933333 38.4-85.333333 85.333334-85.333334h682.666666c46.933333 0 85.333333 38.4 85.333334 85.333334V554.666667c0 46.933333-38.4 85.333333-85.333334 85.333333z"  horiz-adv-x="1024" />

    
    <glyph glyph-name="motorcycle" unicode="&#59614;" d="M829.44 510.72L657.493333 682.666667H469.333333v-85.333334h153.173334l85.333333-85.333333H213.333333C93.866667 512 0 418.133333 0 298.666667s93.866667-213.333333 213.333333-213.333334c104.96 0 189.866667 72.106667 209.066667 170.666667h70.4l118.186667 118.186667A208.341333 208.341333 0 0 1 597.333333 298.666667c0-119.466667 93.866667-213.333333 213.333334-213.333334s213.333333 93.866667 213.333333 213.333334c0 113.066667-84.053333 203.52-194.56 212.053333zM333.653333 256c-17.92-49.066667-65.706667-85.333333-120.32-85.333333-69.546667 0-128 58.453333-128 128s58.453333 128 128 128c54.613333 0 102.4-36.266667 120.32-85.333334H213.333333v-85.333333h120.32zM810.666667 170.666667c-70.826667 0-128 57.173333-128 128s57.173333 128 128 128 128-57.173333 128-128-57.173333-128-128-128z"  horiz-adv-x="1024" />

    
    <glyph glyph-name="note-add" unicode="&#59615;" d="M597.333333 810.666667H256C208.853333 810.666667 171.093333 772.48 171.093333 725.333333L170.666667 42.666667c0-47.146667 37.76-85.333333 84.906666-85.333334H768c47.146667 0 85.333333 38.186667 85.333333 85.333334V554.666667L597.333333 810.666667z m85.333334-597.333334h-128v-128h-85.333334v128h-128v85.333334h128v128h85.333334v-128h128v-85.333334z m-128 298.666667V746.666667l234.666666-234.666667H554.666667z"  horiz-adv-x="1024" />

    
    <glyph glyph-name="opacity" unicode="&#59616;" d="M753.493333 554.88L512 795.946667l-241.493333-241.066667C203.946667 488.32 170.666667 399.573333 170.666667 314.24s33.28-175.36 99.84-241.92a340.906667 340.906667 0 0 1 482.986666 0C820.053333 138.88 853.333333 228.906667 853.333333 314.24s-33.28 174.08-99.84 240.64zM256 298.666667c0.426667 85.333333 26.453333 139.733333 75.093333 187.946666L512 671.36l180.906667-186.666667C741.546667 436.266667 767.573333 384 768 298.666667H256z"  horiz-adv-x="1024" />

    
    <glyph glyph-name="open-in-browser" unicode="&#59617;" d="M810.666667 725.333333H213.333333c-47.146667 0-85.333333-38.186667-85.333333-85.333333v-512c0-47.146667 38.186667-85.333333 85.333333-85.333333h170.666667v85.333333h-170.666667V554.666667h597.333334v-426.666667h-170.666667v-85.333333h170.666667c47.146667 0 85.333333 38.186667 85.333333 85.333333V640c0 47.146667-38.186667 85.333333-85.333333 85.333333zM512 469.333333l-170.666667-170.666666h128v-256h85.333334V298.666667h128l-170.666667 170.666666z"  horiz-adv-x="1024" />

    
    <glyph glyph-name="loyalty" unicode="&#59618;" d="M913.493333 401.92L529.706667 785.706667A85.12 85.12 0 0 1 469.333333 810.666667H170.666667C123.52 810.666667 85.333333 772.48 85.333333 725.333333v-298.666666c0-23.68 9.6-45.013333 25.173334-60.373334l384-384C509.866667-33.066667 531.2-42.666667 554.666667-42.666667c23.68 0 45.013333 9.6 60.373333 24.96l298.666667 298.666667C929.066667 296.533333 938.666667 317.866667 938.666667 341.333333c0 23.68-9.6 45.013333-25.173334 60.586667zM234.666667 597.333333c-35.413333 0-64 28.586667-64 64s28.586667 64 64 64 64-28.586667 64-64-28.586667-64-64-64z m502.186666-352.853333L554.666667 62.293333l-182.186667 182.186667C353.28 263.893333 341.333333 290.56 341.333333 320c0 58.88 47.786667 106.666667 106.666667 106.666667 29.44 0 56.32-11.946667 75.52-31.36L554.666667 364.16l31.146666 31.146667C605.226667 414.72 631.893333 426.666667 661.333333 426.666667c58.88 0 106.666667-47.786667 106.666667-106.666667 0-29.44-11.946667-56.106667-31.146667-75.52z"  horiz-adv-x="1024" />

    
    <glyph glyph-name="open-in-new" unicode="&#59619;" d="M810.666667 85.333333H213.333333V682.666667h298.666667V768H213.333333c-47.146667 0-85.333333-38.186667-85.333333-85.333333v-597.333334c0-47.146667 38.186667-85.333333 85.333333-85.333333h597.333334c47.146667 0 85.333333 38.186667 85.333333 85.333333V384h-85.333333v-298.666667zM597.333333 768v-85.333333h152.96L330.88 263.253333l60.373333-60.373333L810.666667 622.293333V469.333333h85.333333V768H597.333333z"  horiz-adv-x="1024" />

    
    <glyph glyph-name="open-with" unicode="&#59620;" d="M426.666667 512h170.666666v128h128L512 853.333333 298.666667 640h128v-128z m-42.666667-42.666667h-128v128L42.666667 384l213.333333-213.333333v128h128v170.666666z m597.333333-85.333333L768 597.333333v-128h-128v-170.666666h128v-128l213.333333 213.333333z m-384-128h-170.666666v-128h-128l213.333333-213.333333 213.333333 213.333333h-128v128z"  horiz-adv-x="1024" />

    
    <glyph glyph-name="pageview" unicode="&#59621;" d="M490.666667 512c-58.88 0-106.666667-47.786667-106.666667-106.666667s47.786667-106.666667 106.666667-106.666666 106.666667 47.786667 106.666666 106.666666-47.786667 106.666667-106.666666 106.666667zM853.333333 725.333333H170.666667c-47.146667 0-85.333333-38.186667-85.333334-85.333333v-512c0-47.146667 38.186667-85.333333 85.333334-85.333333h682.666666c47.146667 0 85.333333 38.186667 85.333334 85.333333V640c0 47.146667-38.186667 85.333333-85.333334 85.333333z m-136.746666-606.08l-123.946667 123.946667c-29.653333-18.773333-64.426667-29.866667-101.973333-29.866667a192 192 0 1 0 192 192c0-37.546667-11.093333-72.32-29.866667-101.76l124.16-123.733333-60.373333-60.586667z"  horiz-adv-x="1024" />

    
    <glyph glyph-name="payment" unicode="&#59622;" d="M853.333333 725.333333H170.666667c-47.146667 0-84.906667-38.186667-84.906667-85.333333L85.333333 128c0-47.146667 38.186667-85.333333 85.333334-85.333333h682.666666c47.146667 0 85.333333 38.186667 85.333334 85.333333V640c0 47.146667-38.186667 85.333333-85.333334 85.333333z m0-597.333333H170.666667V384h682.666666v-256z m0 426.666667H170.666667v85.333333h682.666666v-85.333333z"  horiz-adv-x="1024" />

    
    <glyph glyph-name="pan-tool" unicode="&#59623;" d="M981.333333 661.333333v-618.666666c0-93.866667-76.8-170.666667-170.666666-170.666667H499.2c-46.08 0-89.6 18.346667-121.6 50.773333L42.666667 263.253333s53.76 52.48 55.466666 53.333334c9.386667 8.106667 20.906667 12.373333 33.706667 12.373333 9.386667 0 17.92-2.56 25.6-6.826667 1.706667-0.426667 183.893333-104.96 183.893333-104.96V725.333333c0 35.413333 28.586667 64 64 64s64-28.586667 64-64v-298.666666h42.666667V832c0 35.413333 28.586667 64 64 64s64-28.586667 64-64v-405.333333h42.666667V789.333333c0 35.413333 28.586667 64 64 64s64-28.586667 64-64v-362.666666h42.666666V661.333333c0 35.413333 28.586667 64 64 64s64-28.586667 64-64z"  horiz-adv-x="1024" />

    
    <glyph glyph-name="perm-contact-calenda" unicode="&#59624;" d="M810.666667 768h-42.666667V853.333333h-85.333333v-85.333333H341.333333V853.333333h-85.333333v-85.333333h-42.666667c-47.146667 0-85.333333-38.186667-85.333333-85.333333v-597.333334c0-47.146667 38.186667-85.333333 85.333333-85.333333h597.333334c47.146667 0 85.333333 38.186667 85.333333 85.333333V682.666667c0 47.146667-38.186667 85.333333-85.333333 85.333333z m-298.666667-128c70.613333 0 128-57.386667 128-128 0-70.826667-57.386667-128-128-128s-128 57.173333-128 128c0 70.613333 57.386667 128 128 128z m256-512H256v42.666667c0 85.333333 170.666667 132.266667 256 132.266666S768 256 768 170.666667v-42.666667z"  horiz-adv-x="1024" />

    
    <glyph glyph-name="perm-camera" unicode="&#59625;" d="M853.333333 682.666667h-135.253333L640 768H384l-78.08-85.333333H170.666667c-47.146667 0-85.333333-38.186667-85.333334-85.333334v-512c0-47.146667 38.186667-85.333333 85.333334-85.333333h298.666666v89.173333c-120.96 20.48-213.333333 125.653333-213.333333 252.16h85.333333c0-94.08 76.586667-170.666667 170.666667-170.666666s170.666667 76.586667 170.666667 170.666666h85.333333c0-126.506667-92.373333-231.68-213.333333-252.16V0h298.666666c47.146667 0 85.333333 38.186667 85.333334 85.333333V597.333333c0 47.146667-38.186667 85.333333-85.333334 85.333334zM597.333333 341.333333c0-47.146667-38.186667-85.333333-85.333333-85.333333s-85.333333 38.186667-85.333333 85.333333v170.666667c0 47.146667 38.186667 85.333333 85.333333 85.333333s85.333333-38.186667 85.333333-85.333333v-170.666667z"  horiz-adv-x="1024" />

    
    <glyph glyph-name="perm-device-informat" unicode="&#59626;" d="M554.666667 597.333333h-85.333334v-85.333333h85.333334v85.333333z m0-170.666666h-85.333334v-256h85.333334V426.666667z m170.666666 426.24L298.666667 853.333333c-47.146667 0-85.333333-38.186667-85.333334-85.333333v-768c0-47.146667 38.186667-85.333333 85.333334-85.333333h426.666666c47.146667 0 85.333333 38.186667 85.333334 85.333333V768c0 47.146667-38.186667 84.906667-85.333334 84.906667zM725.333333 85.333333H298.666667V682.666667h426.666666v-597.333334z"  horiz-adv-x="1024" />

    
    <glyph glyph-name="perm-data-setting" unicode="&#59627;" d="M810.24 405.333333c14.506667 0 29.013333-1.28 43.093333-3.2V896L0 42.666667h493.44c-1.92 14.08-3.2 28.16-3.2 42.666666 0 176.64 143.36 320 320 320z m158.506667-340.906666c0.853333 6.826667 1.493333 13.653333 1.493333 20.906666 0 7.04-0.64 14.08-1.493333 20.906667l45.013333 35.2c4.053333 3.2 5.12 8.96 2.56 13.653333l-42.666667 73.813334c-2.56 4.693333-8.32 6.4-13.013333 4.693333l-53.12-21.333333c-11.093333 8.533333-23.04 15.573333-36.053333 20.906666l-7.893334 56.533334a10.794667 10.794667 0 0 1-10.666666 8.96h-85.333334c-5.333333 0-9.813333-3.84-10.453333-8.96l-7.893333-56.533334c-13.013333-5.333333-24.96-12.586667-36.053334-20.906666l-53.12 21.333333c-4.906667 1.92-10.453333 0-13.013333-4.693333l-42.666667-73.813334c-2.773333-4.693333-1.493333-10.453333 2.56-13.653333l45.013334-35.2c-0.853333-6.826667-1.493333-13.866667-1.493334-20.906667 0-7.04 0.64-14.08 1.493334-20.906666l-45.013334-35.2c-4.053333-3.2-5.12-8.96-2.56-13.653334l42.666667-73.813333c2.773333-4.693333 8.32-6.4 13.013333-4.693333l53.12 21.333333c11.093333-8.533333 23.04-15.573333 36.053334-20.906667l7.893333-56.533333c0.853333-5.12 5.333333-8.96 10.453333-8.96h85.333334c5.333333 0 9.6 3.84 10.453333 8.96l7.893333 56.533333c13.013333 5.333333 24.96 12.586667 36.053334 20.906667l53.12-21.333333c4.906667-1.92 10.453333 0 13.013333 4.693333l42.666667 73.813333c2.773333 4.693333 1.493333 10.453333-2.56 13.653334l-44.8 35.2zM810.24 21.333333c-35.413333 0-64 28.586667-64 64s28.586667 64 64 64 64-28.586667 64-64-28.586667-64-64-64z"  horiz-adv-x="1024" />

    
    <glyph glyph-name="perm-identity" unicode="&#59628;" d="M512 644.266667a89.6 89.6 0 1 0 0.021333-179.178667A89.6 89.6 0 0 0 512 644.266667m0-384c126.933333 0 260.266667-62.08 260.266667-89.6v-46.933334H251.733333V170.666667c0 27.52 133.333333 89.6 260.266667 89.6M512 725.333333c-94.293333 0-170.666667-76.373333-170.666667-170.666666 0-94.08 76.373333-170.666667 170.666667-170.666667s170.666667 76.586667 170.666667 170.666667c0 94.293333-76.373333 170.666667-170.666667 170.666666z m0-384c-113.706667 0-341.333333-56.96-341.333333-170.666666v-128h682.666666v128c0 113.706667-227.626667 170.666667-341.333333 170.666666z"  horiz-adv-x="1024" />

    
    <glyph glyph-name="perm-media" unicode="&#59629;" d="M85.333333 640H0v-213.333333h0.426667L0 42.666667c0-47.146667 38.186667-85.333333 85.333333-85.333334h768v85.333334H85.333333V640z m853.333334 85.333333H597.333333l-85.333333 85.333334H256C208.853333 810.666667 171.093333 772.48 171.093333 725.333333L170.666667 213.333333c0-47.146667 38.186667-85.333333 85.333333-85.333333h682.666667c47.146667 0 85.333333 38.186667 85.333333 85.333333V640c0 47.146667-38.186667 85.333333-85.333333 85.333333zM298.666667 256l192 256 149.333333-192.213333L746.666667 448l149.333333-192H298.666667z"  horiz-adv-x="1024" />

    
    <glyph glyph-name="perm-phone-msg" unicode="&#59630;" d="M853.333333 234.666667c-53.12 0-104.533333 8.533333-152.32 24.32-14.72 4.693333-31.573333 1.28-43.306666-10.453334l-93.866667-94.08a643.648 643.648 0 0 0-281.173333 280.96l93.866666 94.293334c11.733333 11.733333 15.146667 28.586667 10.453334 43.306666C371.2 620.8 362.666667 672.213333 362.666667 725.333333c0 23.68-18.986667 42.666667-42.666667 42.666667H170.666667a42.666667 42.666667 0 0 1-42.666667-42.666667c0-400.64 324.693333-725.333333 725.333333-725.333333 23.68 0 42.666667 18.986667 42.666667 42.666667v149.333333c0 23.68-18.986667 42.666667-42.666667 42.666667zM512 768v-426.666667l128 128h256V768H512z"  horiz-adv-x="1024" />

    
    <glyph glyph-name="perm-scan-wifi" unicode="&#59631;" d="M512 768C296.746667 768 134.186667 689.066667 0 587.306667L512-42.666667l512 629.333334C889.813333 688.213333 727.253333 768 512 768z m42.666667-554.666667h-85.333334V469.333333h85.333334v-256z m-85.333334 341.333334v85.333333h85.333334v-85.333333h-85.333334z"  horiz-adv-x="1024" />

    
    <glyph glyph-name="pets" unicode="&#59632;" d="M192 490.666667m-106.666667 0a106.666667 106.666667 0 1 1 213.333334 0 106.666667 106.666667 0 1 1-213.333334 0ZM384 661.333333m-106.666667 0a106.666667 106.666667 0 1 1 213.333334 0 106.666667 106.666667 0 1 1-213.333334 0ZM640 661.333333m-106.666667 0a106.666667 106.666667 0 1 1 213.333334 0 106.666667 106.666667 0 1 1-213.333334 0ZM832 490.666667m-106.666667 0a106.666667 106.666667 0 1 1 213.333334 0 106.666667 106.666667 0 1 1-213.333334 0ZM739.84 261.973333c-37.333333 43.306667-68.48 80.64-105.813333 123.946667-19.84 23.04-44.8 46.293333-74.453334 56.32-4.48 1.493333-9.173333 2.773333-14.08 3.626667-10.88 2.133333-22.4 2.133333-33.493333 2.133333s-22.613333 0-33.493333-2.133333c-4.693333-0.853333-9.386667-2.133333-14.08-3.626667-29.653333-10.026667-54.613333-33.28-74.453334-56.32-37.333333-43.306667-68.48-80.64-105.813333-123.946667-55.893333-55.68-124.373333-117.76-112-204.586666 12.373333-43.306667 43.52-86.826667 99.626667-99.2 31.146667-6.186667 130.56 18.56 236.373333 18.56 1.28 0 2.56-0.213333 3.84-0.213334s2.56 0.213333 3.84 0.213334c105.813333 0 205.226667-24.746667 236.373333-18.56 55.893333 12.373333 87.04 55.68 99.626667 99.2 12.373333 86.826667-55.893333 148.906667-112 204.586666z"  horiz-adv-x="1024" />

    
    <glyph glyph-name="picture-in-picture" unicode="&#59633;" d="M810.666667 597.333333H469.333333v-256h341.333334V597.333333z m85.333333 170.666667H128c-47.146667 0-85.333333-38.186667-85.333333-85.333333v-597.333334c0-47.146667 38.186667-84.48 85.333333-84.48h768c47.146667 0 85.333333 37.546667 85.333333 84.48V682.666667c0 47.146667-38.186667 85.333333-85.333333 85.333333z m0-683.306667H128V683.306667h768v-598.613334z"  horiz-adv-x="1024" />

    
    <glyph glyph-name="picture-in-picture-a" unicode="&#59634;" d="M810.666667 426.666667H469.333333v-255.786667h341.333334V426.666667z m170.666666-341.333334V683.52C981.333333 730.453333 942.933333 768 896 768H128C81.066667 768 42.666667 730.453333 42.666667 683.52V85.333333c0-46.933333 38.4-85.333333 85.333333-85.333333h768c46.933333 0 85.333333 38.4 85.333333 85.333333z m-85.333333-0.853333H128V683.946667h768v-599.466667z"  horiz-adv-x="1024" />

    
    <glyph glyph-name="play-for-work" unicode="&#59635;" d="M469.333333 682.666667v-238.293334h-149.333333l192-192 192 192h-149.333333V682.666667h-85.333334zM256 298.666667c0-141.226667 114.773333-256 256-256s256 114.773333 256 256h-85.333333c0-94.293333-76.373333-170.666667-170.666667-170.666667s-170.666667 76.373333-170.666667 170.666667h-85.333333z"  horiz-adv-x="1024" />

    
    <glyph glyph-name="polymer" unicode="&#59636;" d="M810.666667 725.333333h-170.666667L303.146667 186.453333 192 384l192 341.333333h-170.666667L21.333333 384l192-341.333333h170.666667l336.853333 538.88L832 384l-192-341.333333h170.666667l192 341.333333z"  horiz-adv-x="1024" />

    
    <glyph glyph-name="power-settings-new" unicode="&#59637;" d="M554.666667 768h-85.333334v-426.666667h85.333334V768z m206.293333-92.373333l-60.373333-60.373334C767.573333 560.426667 810.666667 477.44 810.666667 384c0-164.906667-133.76-298.666667-298.666667-298.666667s-298.666667 133.76-298.666667 298.666667c0 93.44 43.093333 176.426667 110.08 231.253333l-60.373333 60.373334C180.693333 605.226667 128 500.906667 128 384c0-212.053333 171.946667-384 384-384s384 171.946667 384 384c0 116.906667-52.693333 221.226667-135.04 291.626667z"  horiz-adv-x="1024" />

    
    <glyph glyph-name="pregnant-woman" unicode="&#59638;" d="M384 725.333333c0 47.36 37.973333 85.333333 85.333333 85.333334s85.333333-37.973333 85.333334-85.333334-37.973333-85.333333-85.333334-85.333333-85.333333 37.973333-85.333333 85.333333z m298.666667-384a139.946667 139.946667 0 0 1-85.333334 128c0 70.613333-57.386667 128-128 128s-128-57.386667-128-128v-298.666666h85.333334v-213.333334h128V170.666667h128v170.666666z"  horiz-adv-x="1024" />

    
    <glyph glyph-name="print" unicode="&#59639;" d="M810.666667 554.666667H213.333333c-70.613333 0-128-57.386667-128-128v-256h170.666667v-170.666667h512v170.666667h170.666667V426.666667c0 70.613333-57.386667 128-128 128z m-128-469.333334H341.333333V298.666667h341.333334v-213.333334z m128 298.666667c-23.68 0-42.666667 18.986667-42.666667 42.666667s18.986667 42.666667 42.666667 42.666666c23.68 0 42.666667-18.986667 42.666666-42.666666s-18.986667-42.666667-42.666666-42.666667zM768 768H256v-170.666667h512V768z"  horiz-adv-x="1024" />

    
    <glyph glyph-name="query-builder" unicode="&#59640;" d="M511.786667 810.666667C276.053333 810.666667 85.333333 619.733333 85.333333 384s190.72-426.666667 426.453334-426.666667C747.52-42.666667 938.666667 148.266667 938.666667 384S747.52 810.666667 511.786667 810.666667zM512 42.666667c-188.586667 0-341.333333 152.746667-341.333333 341.333333S323.413333 725.333333 512 725.333333s341.333333-152.746667 341.333333-341.333333-152.746667-341.333333-341.333333-341.333333z m21.333333 554.666666h-64v-256l223.786667-134.4L725.333333 259.413333l-192 113.92z"  horiz-adv-x="1024" />

    
    <glyph glyph-name="question-answer" unicode="&#59641;" d="M896 640h-85.333333v-384H256v-85.333333c0-23.466667 19.2-42.666667 42.666667-42.666667h469.333333l170.666667-170.666667V597.333333c0 23.466667-19.2 42.666667-42.666667 42.666667z m-170.666667-256V768c0 23.466667-19.2 42.666667-42.666666 42.666667H128c-23.466667 0-42.666667-19.2-42.666667-42.666667v-597.333333l170.666667 170.666666h426.666667c23.466667 0 42.666667 19.2 42.666666 42.666667z"  horiz-adv-x="1024" />

    
    <glyph glyph-name="receipt" unicode="&#59642;" d="M768 170.666667H256v85.333333h512v-85.333333z m0 170.666666H256v85.333334h512v-85.333334z m0 170.666667H256v85.333333h512v-85.333333zM128-42.666667l64 64 64-64 64 64 64-64 64 64 64-64 64 64 64-64 64 64 64-64 64 64 64-64V810.666667l-64-64-64 64-64-64-64 64-64-64-64 64-64-64-64 64-64-64-64 64-64-64-64 64v-853.333334z"  horiz-adv-x="1024" />

    
    <glyph glyph-name="record-voice-over" unicode="&#59643;" d="M384 512m-170.666667 0a170.666667 170.666667 0 1 1 341.333334 0 170.666667 170.666667 0 1 1-341.333334 0ZM384 256c-113.92 0-341.333333-57.173333-341.333333-170.666667v-85.333333h682.666666v85.333333c0 113.493333-227.413333 170.666667-341.333333 170.666667z m331.093333 411.093333l-71.893333-72.106666c35.84-50.56 35.84-115.413333 0-165.973334l71.893333-72.106666c86.186667 86.613333 86.186667 216.533333 0 310.186666zM856.533333 810.666667l-69.546666-69.546667c118.186667-129.066667 118.186667-322.346667-0.213334-458.026667L856.533333 213.333333c166.4 165.76 166.4 424.746667 0 597.333334z"  horiz-adv-x="1024" />

    
    <glyph glyph-name="redeem" unicode="&#59644;" d="M853.333333 640h-93.226666c4.693333 13.44 7.893333 27.52 7.893333 42.666667 0 70.613333-57.386667 128-128 128-44.586667 0-83.84-22.826667-106.666667-57.386667l-21.333333-29.013333-21.333333 29.013333A127.637333 127.637333 0 0 1 384 810.666667c-70.613333 0-128-57.386667-128-128 0-15.146667 2.986667-29.226667 7.893333-42.666667H170.666667c-47.146667 0-84.906667-38.186667-84.906667-85.333333L85.333333 85.333333c0-47.146667 38.186667-85.333333 85.333334-85.333333h682.666666c47.146667 0 85.333333 38.186667 85.333334 85.333333V554.666667c0 47.146667-38.186667 85.333333-85.333334 85.333333zM640 725.333333c23.466667 0 42.666667-19.2 42.666667-42.666666s-19.2-42.666667-42.666667-42.666667-42.666667 19.2-42.666667 42.666667 19.2 42.666667 42.666667 42.666666zM384 725.333333c23.466667 0 42.666667-19.2 42.666667-42.666666s-19.2-42.666667-42.666667-42.666667-42.666667 19.2-42.666667 42.666667 19.2 42.666667 42.666667 42.666666z m469.333333-640H170.666667v85.333334h682.666666v-85.333334z m0 213.333334H170.666667V554.666667h216.746666L298.666667 433.706667 368 384 469.333333 522.026667l42.666667 58.026666 42.666667-58.026666L656 384 725.333333 433.706667 636.586667 554.666667H853.333333v-256z"  horiz-adv-x="1024" />

    
    <glyph glyph-name="remove-shopping-cart" unicode="&#59645;" d="M969.813333-73.813333L118.186667 777.813333 85.333333 810.666667 54.186667 841.813333 0 787.626667l187.306667-187.306667 94.293333-198.826667-57.6-104.533333c-6.826667-11.946667-10.666667-26.026667-10.666667-40.96 0-46.933333 38.4-85.333333 85.333334-85.333333h318.293333l58.88-58.88c-21.333333-15.573333-35.413333-40.746667-35.413333-69.12 0-46.933333 37.973333-85.333333 84.906666-85.333334 28.373333 0 53.546667 14.293333 69.12 35.84L915.626667-128l54.186666 54.186667zM316.586667 256c-5.973333 0-10.666667 4.693333-10.666667 10.666667l1.28 5.12L345.6 341.333333h100.693333l85.333334-85.333333H316.586667z m346.88 85.333333c32 0 60.16 17.493333 74.666666 43.946667l152.746667 276.906667c3.413333 5.973333 5.12 13.226667 5.12 20.48 0 23.466667-19.2 42.666667-42.666667 42.666666H279.04l384-384h0.426667zM298.666667 128c-46.933333 0-84.906667-38.4-84.906667-85.333333s37.973333-85.333333 84.906667-85.333334 85.333333 38.4 85.333333 85.333334-38.4 85.333333-85.333333 85.333333z"  horiz-adv-x="1024" />

    
    <glyph glyph-name="report-problem" unicode="&#59646;" d="M42.666667 0h938.666666L512 810.666667 42.666667 0z m512 128h-85.333334v85.333333h85.333334v-85.333333z m0 170.666667h-85.333334v170.666666h85.333334v-170.666666z"  horiz-adv-x="1024" />

    
    <glyph glyph-name="restore" unicode="&#59647;" d="M554.453333 768C342.186667 768 170.666667 596.053333 170.666667 384H42.666667l166.186666-166.186667 2.986667-6.186666L384 384h-128c0 164.906667 133.76 298.666667 298.666667 298.666667s298.666667-133.76 298.666666-298.666667-133.76-298.666667-298.666666-298.666667c-82.56 0-157.013333 33.706667-210.986667 87.68l-60.373333-60.373333C352.64 43.093333 448.426667 0 554.453333 0 766.72 0 938.666667 171.946667 938.666667 384S766.72 768 554.453333 768zM512 554.666667v-213.333334l182.613333-108.373333L725.333333 284.8l-149.333333 88.533333V554.666667h-64z"  horiz-adv-x="1024" />

    
    <glyph glyph-name="room" unicode="&#59648;" d="M512 810.666667c-164.906667 0-298.666667-133.76-298.666667-298.666667 0-224 298.666667-554.666667 298.666667-554.666667s298.666667 330.666667 298.666667 554.666667c0 164.906667-133.76 298.666667-298.666667 298.666667z m0-405.333334c-58.88 0-106.666667 47.786667-106.666667 106.666667s47.786667 106.666667 106.666667 106.666667 106.666667-47.786667 106.666667-106.666667-47.786667-106.666667-106.666667-106.666667z"  horiz-adv-x="1024" />

    
    <glyph glyph-name="rounded-corner" unicode="&#59649;" d="M810.666667 85.333333h85.333333v-85.333333h-85.333333v85.333333z m0 85.333334h85.333333v85.333333h-85.333333v-85.333333zM128 341.333333h85.333333v85.333334H128v-85.333334z m0-170.666666h85.333333v85.333333H128v-85.333333z m0 341.333333h85.333333v85.333333H128v-85.333333z m0 170.666667h85.333333V768H128v-85.333333z m170.666667 0h85.333333V768h-85.333333v-85.333333z m341.333333-682.666667h85.333333v85.333333h-85.333333v-85.333333z m-170.666667 0h85.333334v85.333333h-85.333334v-85.333333z m170.666667 0h85.333333v85.333333h-85.333333v-85.333333z m-341.333333 0h85.333333v85.333333h-85.333333v-85.333333z m-170.666667 0h85.333333v85.333333H128v-85.333333z m768 554.666667c0 117.546667-95.786667 213.333333-213.333333 213.333333H469.333333v-85.333333h213.333334c70.613333 0 128-57.386667 128-128v-213.333334h85.333333V554.666667z"  horiz-adv-x="1024" />

    
    <glyph glyph-name="restore-page" unicode="&#59650;" d="M597.333333 810.666667H256C209.066667 810.666667 171.093333 772.266667 171.093333 725.333333L170.666667 42.666667c0-46.933333 37.973333-85.333333 84.906666-85.333334H768c46.933333 0 85.333333 38.4 85.333333 85.333334V554.666667L597.333333 810.666667z m-85.333333-682.666667c-87.466667 0-162.346667 52.693333-195.413333 128h72.96c27.093333-38.613333 71.68-64 122.24-64 82.56 0 149.333333 66.773333 149.333333 149.333333s-66.773333 149.333333-149.333333 149.333334c-57.813333 0-107.306667-33.066667-132.053334-81.28L448 341.333333h-170.666667v170.666667l55.466667-55.466667c37.973333 58.88 103.893333 98.133333 179.2 98.133334 117.76 0 213.333333-95.573333 213.333333-213.333334s-95.573333-213.333333-213.333333-213.333333z"  horiz-adv-x="1024" />

    
    <glyph glyph-name="schedule" unicode="&#59651;" d="M511.786667 810.666667C276.053333 810.666667 85.333333 619.733333 85.333333 384s190.72-426.666667 426.453334-426.666667C747.52-42.666667 938.666667 148.266667 938.666667 384S747.52 810.666667 511.786667 810.666667zM512 42.666667c-188.586667 0-341.333333 152.746667-341.333333 341.333333S323.413333 725.333333 512 725.333333s341.333333-152.746667 341.333333-341.333333-152.746667-341.333333-341.333333-341.333333z m21.333333 554.666666h-64v-256l223.786667-134.4L725.333333 259.413333l-192 113.92z"  horiz-adv-x="1024" />

    
    <glyph glyph-name="rowing" unicode="&#59652;" d="M362.666667 277.333333l-192-192 64-64 149.333333 149.333334h85.333333l-106.666666 106.666666zM640 853.333333c-46.933333 0-85.333333-38.4-85.333333-85.333333s38.4-85.333333 85.333333-85.333333 85.333333 38.4 85.333333 85.333333-38.4 85.333333-85.333333 85.333333z m256-853.76L768-128l-127.573333 128.426667V64l-302.933334 302.506667c-13.226667-2.133333-26.026667-2.986667-38.826666-2.986667v92.16c70.826667-1.28 154.026667 37.12 199.253333 87.04l59.733333 66.133333c8.106667 8.96 18.346667 16.213333 29.44 21.333334a94.933333 94.933333 0 0 0 40.96 9.813333h1.28c52.906667-0.426667 96-43.52 96-96.426667v-245.333333c0-35.84-14.933333-68.693333-39.253333-92.16L533.333333 358.826667v96.853333a413.781333 413.781333 0 0 0-97.706666-59.306667L704 128h64l128-128.426667z"  horiz-adv-x="1024" />

    
    <glyph glyph-name="search" unicode="&#59653;" d="M661.333333 298.666667h-33.92l-11.733333 11.733333C657.493333 358.826667 682.666667 421.76 682.666667 490.666667c0 153.173333-124.16 277.333333-277.333334 277.333333S128 643.84 128 490.666667s124.16-277.333333 277.333333-277.333334c68.906667 0 131.84 25.173333 180.266667 66.773334l11.733333-11.733334V234.666667l213.333334-212.906667L874.24 85.333333 661.333333 298.666667z m-256 0a192 192 0 1 0 0.021334 384.021333A192 192 0 0 0 405.333333 298.666667z"  horiz-adv-x="1024" />

    
    <glyph glyph-name="settings-application" unicode="&#59654;" d="M512 469.333333c-47.146667 0-85.333333-38.186667-85.333333-85.333333s38.186667-85.333333 85.333333-85.333333 85.333333 38.186667 85.333333 85.333333-38.186667 85.333333-85.333333 85.333333zM810.666667 768H213.333333c-47.146667 0-85.333333-38.186667-85.333333-85.333333v-597.333334c0-47.146667 38.186667-85.333333 85.333333-85.333333h597.333334c47.146667 0 85.333333 38.186667 85.333333 85.333333V682.666667c0 47.146667-38.186667 85.333333-85.333333 85.333333z m-74.666667-384c0-9.813333-0.853333-19.626667-2.133333-29.226667l63.146666-49.493333c5.546667-4.48 7.253333-12.586667 3.413334-18.986667l-59.733334-103.466666c-3.626667-6.4-11.52-8.96-18.346666-6.4l-74.453334 30.08c-15.36-11.946667-32.213333-21.76-50.56-29.44l-11.093333-79.146667c-0.853333-7.04-7.04-12.586667-14.506667-12.586667h-119.466666a14.933333 14.933333 0 0 0-14.72 12.586667l-11.093334 79.146667c-18.133333 7.466667-34.986667 17.493333-50.56 29.44l-74.24-29.866667c-6.826667-2.56-14.506667 0-18.346666 6.4l-59.733334 103.466667c-3.84 6.4-2.133333 14.506667 3.413334 18.986666l63.146666 49.28c-1.28 9.6-2.133333 19.2-2.133333 29.226667 0 9.813333 0.853333 19.626667 2.133333 29.226667l-63.146666 49.28a14.741333 14.741333 0 0 0-3.413334 18.986666l59.733334 103.466667c3.84 6.4 11.52 8.96 18.346666 6.4l74.24-29.866667c15.36 11.733333 32.213333 21.76 50.56 29.44l11.093334 79.146667a14.933333 14.933333 0 0 0 14.72 12.586667h119.466666a14.933333 14.933333 0 0 0 14.72-12.586667l11.093334-79.146667c18.133333-7.466667 34.986667-17.493333 50.56-29.44l74.24 29.866667c6.826667 2.56 14.506667 0 18.346666-6.4l59.733334-103.466667c3.84-6.4 2.133333-14.506667-3.413334-18.986666l-63.146666-49.493334c1.28-9.386667 2.133333-19.2 2.133333-29.013333z"  horiz-adv-x="1024" />

    
    <glyph glyph-name="settings-backup-rest" unicode="&#59655;" d="M597.333333 384c0 47.146667-38.186667 85.333333-85.333333 85.333333s-85.333333-38.186667-85.333333-85.333333 38.186667-85.333333 85.333333-85.333333 85.333333 38.186667 85.333333 85.333333zM512 768C299.946667 768 128 596.053333 128 384H0l170.666667-170.666667 170.666666 170.666667h-128c0 164.906667 133.76 298.666667 298.666667 298.666667s298.666667-133.76 298.666667-298.666667-133.76-298.666667-298.666667-298.666667c-64.64 0-124.16 20.693333-173.226667 55.68l-60.373333-61.226666C343.253333 29.866667 424.106667 0 512 0c212.053333 0 384 171.946667 384 384S724.053333 768 512 768z"  horiz-adv-x="1024" />

    
    </font>
</defs>
</svg>
